<?xml version="1.0" encoding="utf-8"?>
<!-- Generator: Adobe Illustrator 27.5.0, SVG Export Plug-In . SVG Version: 6.00 Build 0)  -->
<svg version="1.1" xmlns="http://www.w3.org/2000/svg" xmlns:xlink="http://www.w3.org/1999/xlink" x="0px" y="0px"
	 viewBox="0 0 500 500" style="enable-background:new 0 0 500 500;" xml:space="preserve">
<g id="BACKGROUND">
	<rect style="fill:#00000000;" width="500" height="500"/>
</g>
<g id="OBJECTS">
	<g>
		<path style="fill:#E3ECF4;" d="M218.759,397.91c0,3.529-31.465,6.389-70.279,6.389c-38.814,0-70.279-2.861-70.279-6.389
			s31.465-6.389,70.279-6.389C187.294,391.521,218.759,394.381,218.759,397.91z"/>
		<ellipse style="fill:#E3ECF4;" cx="347.564" cy="387.987" rx="123.304" ry="14.181"/>
		<g>
			<path style="fill:#DDEDEE;" d="M51.892,209.974c5.374-29.175,27.85-50.939,72.232-46.774c34.745,3.261,69.16,1.97,85.003-10.963
				c15.842-12.933,28.458-29.343,43.334-43.377c14.876-14.034,33.215-26.074,53.647-26.947
				c20.432-0.873,42.418,12.916,44.759,33.233c1.955,16.972-9.498,33.891-5.54,50.511c3.577,15.021,18.45,24.358,32.738,30.214
				s29.996,10.345,40.399,21.756c6.122,6.714,9.84,15.324,12.074,24.131c7.693,30.328-2.468,64.506-25.481,85.706
				c-23.013,21.199-57.908,28.527-87.504,18.376c-8.489-2.911-16.515-7.126-25.152-9.564c-17.457-4.927-36.351-2.225-53.362,4.073
				c-10.441,3.866-20.396,9.053-31.078,12.19c-10.682,3.137-47.405,2.648-58.181-0.148
				C82.634,334.972,42.516,260.874,51.892,209.974z"/>
		</g>
		<g>
			<g>
				<path style="fill:#52909D;" d="M276.569,264.319l-7.043,6.682l5.4-7.937c-4.712-3.41-10.591-6.071-17.876-7.418l-3.151,3.094
					c0,0,0.744-1.687,1.507-3.371c-4.002-0.613-8.405-0.843-13.257-0.594c1.416,7.126,3.345,13.109,5.62,18.146l2.968-3.434
					l-1.533,4.67l2.403-1.354l-1.891,4.056c3.601,6.636,7.859,11.316,12.269,14.592l4.878-7.029l-2.1,8.907
					c13.615,8.302,27.66,4.557,27.66,4.557c0.057-3.863-0.714-9.42-2.907-15.269l-3.537,3.06l2.724-5.08
					C286.25,274.865,282.385,269.011,276.569,264.319z"/>
				<path style="fill:#3F6F7C;" d="M249.669,260.611c0,0,42.26,38.789,46.229,42.374c3.969,3.585,6.029,0.987,2.38-2.259
					C295.893,298.604,249.669,260.611,249.669,260.611z"/>
			</g>
			<path style="fill:#28484F;" d="M257.498,280.715c-3.043-0.529-2.097,2.816-0.806,4.637c1.291,1.821,6.954,9.604,6.954,9.604
				c-0.59,0.167-1.879,0.476-2.464,0.641c-0.463,0.131-0.918,0.26-1.377,0.389c-1.834-1.54-11.461-9.47-14.022-8.36
				c-2.833,1.229-0.608,3.236,1.873,4.317c2.481,1.082,10.155,4.664,10.155,4.664c-0.485,0.168-0.974,0.338-1.45,0.503
				c-0.773,0.271-1.533,0.538-2.277,0.799c-0.747,0.252-1.471,0.516-2.157,0.822c-0.095,0.04-0.183,0.077-0.278,0.117
				c-1.551-1.254-10.183-8.101-12.471-7.108c-2.517,1.092-0.124,2.868,1.664,3.836c1.789,0.968,8.88,4.079,8.88,4.079
				c-0.581,0.243-1.151,0.482-1.694,0.709c-1.218,0.479-2.287,1.027-3.244,1.49c-0.408,0.198-0.788,0.383-1.15,0.559l0.285-0.179
				c0,0-9.351-5.577-11.267-4.374c-1.916,1.203-0.416,2.258,1.833,2.92c2.248,0.662,7.867,2.257,7.867,2.257
				c-0.014,0.007-0.029,0.014-0.043,0.021c-0.361,0.175-0.678,0.33-0.954,0.464c-0.9,0.196-7.05,1.717-9.114,7.153
				c0,0-1.218,2.29,1.798,0.677c2.947-1.576,7.221-7.553,7.418-7.83c0.26-0.117,1.711-0.766,1.854-0.83
				c-0.604,1.423-2.79,6.805-2.381,9.234c0.474,2.811,3.041-0.68,3.041-0.68s2.861-4.927-0.335-8.699
				c0.38-0.17,0.783-0.35,1.215-0.544c0.969-0.432,2.052-0.944,3.283-1.384c0.722-0.276,1.489-0.569,2.277-0.87
				c-0.682,1.738-4.181,10.951-2.491,12.77c1.868,2.01,2.93-0.489,3.064-2.846c0.134-2.357,0.893-10.484,0.893-10.484
				c0.066-0.025,0.127-0.048,0.193-0.074c0.693-0.282,1.421-0.523,2.173-0.75c0.748-0.236,1.512-0.477,2.289-0.723
				c0.777-0.243,1.567-0.489,2.367-0.739c0.279-0.07,0.565-0.141,0.846-0.211c-1.145,1.46-4.7,6.362-5.08,11.436
				c-0.454,6.054,1.647,3.748,1.647,3.748s3.701-2.55,3.791-15.273c0.42-0.105,0.836-0.208,1.26-0.314
				c0.828-0.206,1.664-0.414,2.502-0.623c0.845-0.176,1.702-0.314,2.553-0.474c0.852-0.151,1.705-0.303,2.554-0.454
				c0.014-0.002,0.027-0.003,0.041-0.005c-1.512,1.863-9.1,11.409-8,13.965c1.221,2.837,3.441,0.386,4.323-1.861
				c0.882-2.247,4.4-12.185,4.4-12.185c0.599-0.067,1.198-0.134,1.791-0.201c1.225-0.176,2.444-0.226,3.638-0.273
				c-0.737,1.167-3.128,5.108-3.139,7.102c-0.013,2.356,2.522-0.118,2.522-0.118s2.895-3.514,1.012-7.002
				c0.316-0.012,0.631-0.025,0.943-0.04c0.807-0.063,1.601,0.019,2.376,0.022c0.775,0.039,1.537,0.002,2.269,0.102
				c0.733,0.072,1.447,0.142,2.137,0.21c0.147,0.015,0.286,0.042,0.43,0.062c-0.849,0.827-2.521,3.387-2.961,4.431
				c-0.441,1.045-0.171,2.002,1.695,0.507c1.562-1.251,1.57-4.025,1.531-4.9c0.437,0.07,0.866,0.149,1.281,0.212
				c0.316,0.054,0.625,0.106,0.927,0.157c0.297,0.072,0.587,0.141,0.87,0.209c0.563,0.145,1.107,0.25,1.599,0.407
				c0.147,0.047,0.285,0.09,0.427,0.135c-0.799,1.139-2.04,2.766-1.999,4.709c0.023,1.106,0.188,2,1.758,0.197
				c1.171-1.345,0.911-3.666,0.704-4.759c0.165,0.052,0.331,0.105,0.487,0.154c0.421,0.144,0.794,0.306,1.138,0.435
				c0.675,0.269,1.204,0.53,1.517,0.697c0.311,0.161,0.506,0.286,0.506,0.286c0.004,0.003,0.012,0.007,0.016,0.01
				c0.416,0.254,0.959,0.122,1.213-0.294c0.254-0.416,0.122-0.959-0.294-1.213l-0.027-0.017c0,0-0.175-0.107-0.594-0.313
				c-0.413-0.205-0.971-0.456-1.72-0.729c-0.373-0.128-0.782-0.288-1.235-0.428c-0.097-0.027-0.202-0.057-0.302-0.085
				c-0.208-1.225-0.656-5.041-2.708-6.818c-0.802-0.695-2.245-0.527-1.826,1.575c0.468,2.349,2.607,4.246,3.848,5.049
				c-0.16-0.045-0.318-0.09-0.486-0.137c-0.525-0.148-1.097-0.241-1.692-0.374c-0.298-0.062-0.604-0.125-0.917-0.189
				c-0.316-0.044-0.639-0.089-0.969-0.134c-0.623-0.076-1.269-0.191-1.939-0.245c-0.708-2.116-2.477-4.917-3.38-5.653
				c-1.069-0.871-2.291-0.267-1.607,2.098c0.423,1.463,1.396,2.604,2.507,3.385c-0.712-0.056-1.443-0.008-2.189-0.022
				c-0.796,0.022-1.611-0.034-2.434,0.055c-0.187,0.015-0.377,0.028-0.565,0.042c-1.076-1.846-7.48-12.621-10.302-12.49
				c-3.085,0.144-1.722,2.625,0.219,4.701c1.942,2.076,7.839,7.963,7.839,7.963c-0.747,0.066-1.499,0.148-2.251,0.28
				c-0.855,0.124-1.718,0.249-2.583,0.374c-0.855,0.18-1.713,0.36-2.571,0.541c-0.52,0.114-1.041,0.224-1.561,0.336
				C263.721,291.697,260.111,281.17,257.498,280.715z"/>
			<g>
				<g id="_x34__1_">
					<path id="XMLID_2_" style="fill-rule:evenodd;clip-rule:evenodd;fill:#3F6F7C;" d="M253.405,332.924L253.405,332.924
						c-0.191-0.158-0.328-0.376-0.388-0.674c-0.322-1.614-0.156-2.932-0.678-4.311c-0.523-1.379-1.535-1.118-1.219-3.002
						c0.315-1.885,0.481-1.265,0.263-2.862c-0.217-1.597-0.933-1.178-0.033-2.373c0.899-1.195,2.147-1.255,1.747-2.721
						c-0.4-1.466-1.5-1.327-0.679-2.374c0.821-1.047,4.4-3.784,4.689-5.834c0.289-2.05-1.099-0.507,0.517-3.411
						c1.616-2.904,2.558-2.747,3.641-4.072c1.083-1.326-0.017-1.187,1.686-2.678c1.702-1.491,6.188-3.861,11.152-2.977
						c4.205,0.749,5.329,2.372,6.63,2.995l0,0l0,0c0.898,1.129,2.731,1.862,4.4,5.793c1.97,4.641,0.661,9.543-0.412,11.536
						c-1.073,1.992-1.183,0.889-2.234,2.241c-1.05,1.351-0.686,2.235-3.157,4.458c-2.47,2.224-1.276,0.526-3.21,1.266
						c-1.934,0.74-3.803,4.839-4.64,5.873c-0.837,1.034-0.947-0.069-2.465-0.132c-1.518-0.063-1.298,1.167-2.262,2.31
						c-0.964,1.143-0.716,0.353-2.321,0.497c-1.605,0.145-0.964,0.168-2.731,0.896c-1.767,0.728-1.738-0.317-3.199-0.519
						c-1.461-0.202-2.708,0.255-4.353,0.302C253.845,333.16,253.602,333.074,253.405,332.924z"/>
					<path id="XMLID_1_" style="fill-rule:evenodd;clip-rule:evenodd;fill:#28484F;" d="M276.66,301.76
						c0.497-0.6,1.368-1.579,2.504-2.737c0.246-0.264,0.492-0.526,0.737-0.787c0.033-0.035,0.075-0.058,0.119-0.069
						c2.539-2.489,6.056-5.511,9.658-7.404c0.535-0.283,0.907,0.54,0.413,0.762c-4.458,2.052-7.879,5.094-9.943,7.155
						c-1.074,1.129-2.152,2.29-3.23,3.475c-0.099,3.205,2.581,11.634,3.89,14.67c-1.387-2.777-4.019-11.192-4.052-14.492
						c-1.432,1.579-2.864,3.202-4.284,4.858c-0.276,1.974,1.567,12.463,2.322,14.538c-0.821-1.868-2.624-11.809-2.496-14.336
						c-1.746,2.04-3.472,4.127-5.158,6.236c0.371,1.987,0.215,5.194,0.388,7.333c0.13,1.613,0.432,3.837,1.385,5.184l0.474,0.557
						c0.189,0.163,0.096,0.08,0.281,0.249c-1.714-1.276-2.072-3.992-2.249-5.98c-0.185-2.072-0.062-5.209-0.41-7.176
						c-1.458,1.827-2.885,3.671-4.268,5.515c0.199,2.054,0.541,7.598,1.277,9.011c0.153,0.169,0.078,0.083,0.225,0.259l-0.126-0.117
						c-0.865-0.831-1.323-6.954-1.519-8.962c-1.733,2.316-3.395,4.633-4.959,6.917c-1.243,1.816-2.353,3.624-3.552,5.448
						c1.019-1.984,2.483-4.196,3.73-6.058c1.097-1.638,2.249-3.294,3.443-4.956c-2.345-0.014-3.865,0.289-6.179,0.546
						c-0.332,0.037-0.576,0.048-0.909,0.07c0.601-0.092,0.301-0.05,0.902-0.126c2.186-0.366,4.085-0.647,6.301-0.649
						c1.12-1.555,2.277-3.113,3.462-4.667c-1.227,0.154-2.756,0.246-3.979,0.347c-1.59,0.132-2.694,0.073-4.264-0.173
						c1.669,0.119,2.54,0.224,4.254,0.059c1.076-0.104,3.014-0.382,4.112-0.393c1.54-2.014,3.126-4.018,4.74-5.99
						c-3.224,0.56-9.444,0.035-12.433-0.482c3.282,0.363,9.299,0.969,12.588,0.292c1.391-1.695,2.801-3.367,4.217-4.999
						c-2.006,0.564-5.206,0.336-7.056,0.234c-2.232-0.123-4.637-0.31-6.852-0.609c0.833,0.063,1.665,0.142,2.498,0.21
						c2.574,0.21,8.982,0.798,11.609-0.063C275.067,303.546,275.864,302.645,276.66,301.76z"/>
				</g>
			</g>
		</g>
		<g>
			<g>
				<path style="fill:#28484F;" d="M444.732,313.392c3.2,1.62,3.284-2.416,2.468-4.876c-0.816-2.46-4.466-13.026-4.466-13.026
					c0.712,0.015,2.248,0.109,2.954,0.124c0.559,0.012,1.108,0.023,1.662,0.035c1.514,2.333,9.517,14.406,12.737,14.041
					c3.564-0.404,1.773-3.388-0.616-5.431c-2.389-2.043-9.697-8.625-9.697-8.625c0.596-0.022,1.197-0.045,1.781-0.067
					c0.95-0.039,1.885-0.078,2.8-0.115c0.915-0.026,1.809-0.075,2.674-0.181c0.12-0.012,0.23-0.023,0.349-0.035
					c1.298,1.919,8.561,12.452,11.44,12.125c3.167-0.359,1.111-3.144-0.547-4.825c-1.658-1.681-8.479-7.543-8.479-7.543
					c0.728-0.073,1.442-0.145,2.122-0.213c1.516-0.119,2.888-0.365,4.108-0.554c0.52-0.082,1.006-0.158,1.467-0.231l-0.377,0.102
					c0,0,8.494,9.367,11.03,8.681c2.536-0.686,1.227-2.366-1.045-3.865c-2.272-1.498-7.972-5.176-7.972-5.176
					c0.017-0.003,0.037-0.006,0.054-0.009c0.461-0.072,0.865-0.136,1.217-0.191c1.066,0.088,8.413,0.485,12.55-4.853
					c0,0,2.13-2.13-1.768-1.362c-3.807,0.75-10.582,5.939-10.895,6.179c-0.329,0.041-2.16,0.27-2.341,0.293
					c1.154-1.376,5.407-6.612,5.777-9.448c0.427-3.283-3.608-0.276-3.608-0.276s-4.85,4.501-2.579,9.775
					c-0.48,0.06-0.989,0.124-1.534,0.192c-1.223,0.15-2.599,0.353-4.116,0.423c-0.896,0.061-1.847,0.127-2.825,0.194
					c1.347-1.699,8.358-10.744,7.099-13.337c-1.392-2.867-3.42-0.451-4.368,2.121c-0.948,2.573-4.549,11.341-4.549,11.341
					c-0.082,0.005-0.157,0.011-0.24,0.016c-0.865,0.079-1.756,0.099-2.668,0.096c-0.911,0.008-1.841,0.017-2.788,0.026
					c-0.946,0.006-1.907,0.012-2.88,0.017c-0.333-0.018-0.675-0.036-1.012-0.053c1.767-1.233,7.378-5.472,9.522-10.978
					c2.558-6.57-0.558-4.721-0.558-4.721s-4.976,1.576-9.392,15.676c-0.502-0.026-0.999-0.052-1.506-0.079
					c-0.99-0.052-1.988-0.105-2.99-0.157c-0.998-0.091-1.996-0.228-2.996-0.34c-0.998-0.121-1.996-0.242-2.99-0.362
					c-0.016-0.003-0.031-0.006-0.047-0.009c2.311-1.556,13.978-9.584,13.622-12.796c-0.394-3.565-3.69-1.596-5.432,0.6
					s-9.02,12.041-9.02,12.041c-0.688-0.128-1.376-0.257-2.057-0.384c-1.421-0.221-2.792-0.578-4.133-0.931
					c1.214-1.046,5.207-4.612,5.895-6.823c0.814-2.613-2.841-0.725-2.841-0.725s-4.408,2.921-3.499,7.433
					c-0.355-0.093-0.71-0.187-1.061-0.275c-0.918-0.204-1.771-0.564-2.632-0.83c-0.847-0.306-1.707-0.524-2.486-0.883
					c-0.79-0.329-1.559-0.649-2.302-0.958c-0.158-0.066-0.304-0.143-0.457-0.215c1.223-0.63,3.949-2.906,4.792-3.917
					c0.844-1.011,0.869-2.165-1.711-1.139c-2.159,0.859-3.109,3.938-3.363,4.923c-0.461-0.226-0.911-0.459-1.351-0.67
					c-0.332-0.167-0.658-0.33-0.976-0.489c-0.306-0.18-0.604-0.356-0.896-0.528c-0.576-0.352-1.145-0.653-1.638-0.994
					c-0.148-0.102-0.286-0.197-0.428-0.295c1.273-0.994,3.204-2.38,3.818-4.552c0.349-1.236,0.47-2.285-1.886-0.816
					c-1.757,1.096-2.256,3.762-2.396,5.047c-0.166-0.114-0.332-0.229-0.489-0.337c-0.418-0.303-0.778-0.609-1.116-0.869
					c-0.658-0.528-1.158-0.997-1.448-1.289c-0.291-0.285-0.465-0.489-0.465-0.489c-0.004-0.004-0.011-0.012-0.014-0.016
					c-0.376-0.423-1.024-0.461-1.447-0.085c-0.423,0.376-0.461,1.024-0.085,1.447l0.025,0.028c0,0,0.158,0.178,0.553,0.549
					c0.389,0.368,0.924,0.836,1.663,1.394c0.371,0.269,0.771,0.586,1.227,0.894c0.098,0.063,0.205,0.132,0.307,0.197
					c-0.185,1.431-0.982,5.821,0.694,8.491c0.655,1.044,2.314,1.347,2.562-1.13c0.277-2.767-1.455-5.6-2.561-6.913
					c0.163,0.105,0.323,0.208,0.493,0.317c0.533,0.343,1.136,0.64,1.752,0.99c0.31,0.17,0.629,0.343,0.955,0.521
					c0.336,0.156,0.68,0.315,1.031,0.478c0.666,0.296,1.345,0.642,2.071,0.93c0.068,2.59,1.083,6.301,1.836,7.425
					c0.892,1.33,2.454,1.074,2.496-1.785c0.026-1.768-0.668-3.365-1.636-4.61c0.772,0.304,1.6,0.499,2.423,0.767
					c0.891,0.246,1.778,0.585,2.722,0.764c0.212,0.046,0.428,0.096,0.642,0.145c0.569,2.415,4.026,16.556,7.205,17.367
					c3.475,0.887,2.804-2.332,1.351-5.296c-1.452-2.964-6.005-11.504-6.005-11.504c0.852,0.18,1.715,0.344,2.595,0.453
					c0.992,0.153,1.992,0.307,2.996,0.461c1.01,0.09,2.025,0.181,3.039,0.271c0.617,0.049,1.232,0.105,1.848,0.157
					C441.546,299.084,441.984,312.001,444.732,313.392z"/>
			</g>
			<g>
				<path style="fill:#3F6F7C;" d="M432.156,310.118c0.025,0.053-3.292,4.545-9.352,5.693c-2.915,0.573-5.96,0.38-8.399,0.104
					c4.576,1.638,8.95,3.698,13.075,6.137c1.011-1.169,3.805-4.04,8.496-4.157c6.073-0.202,12.295,4.864,12.215,4.886
					c0.012,0.051-3.967,3.447-9.685,3.206c-2.679-0.095-5.298-0.885-7.391-1.645c3.727,2.497,7.223,5.316,10.446,8.419
					c1.127-0.799,3.938-2.508,7.696-1.784c4.993,0.922,9.202,6.079,9.145,6.085c0.002,0.038-3.875,2.219-8.567,1.029
					c-2.034-0.503-3.918-1.507-5.444-2.458c2.323,2.485,4.481,5.128,6.459,7.913c1.12-0.498,3.663-1.385,6.585-0.263
					c3.998,1.502,6.77,6.334,6.73,6.332c-0.003,0.028-3.54,1.346-7.297-0.32c-1.494-0.653-2.817-1.651-3.901-2.606
					c1.211,1.898,2.341,3.856,3.384,5.867c0.035,0.067,0.048,0.135,0.068,0.203c1.317,0.906,3.539,2.847,4.71,5.77
					c1.778,4.409,0.305,8.816,0.302,8.777c-0.014-0.03-3.393-2.873-5.018-6.88c-1.083-2.705-1.183-5.466-1.162-7.066
					c-0.043-0.055-0.091-0.104-0.125-0.169c-1.025-1.975-2.134-3.897-3.323-5.761c0.398,1.363,0.63,2.97,0.366,4.509
					c-0.69,3.886-4.075,5.756-4.052,5.767c0.01-0.031-1.733-3.855-1.251-7.599c0.374-2.787,1.999-4.872,2.858-5.763
					c-1.942-2.734-4.062-5.33-6.342-7.77c0.83,1.559,1.528,3.533,1.509,5.524c-0.073,4.615-3.69,7.414-3.656,7.425
					c0.006-0.042-2.639-4.01-2.819-8.4c-0.118-3.372,1.403-6.211,2.187-7.37c-3.165-3.047-6.597-5.814-10.257-8.266
					c1.475,1.615,2.956,3.857,3.446,6.336c1.011,5.317-2.552,9.383-2.501,9.389c-0.004-0.055-3.835-3.87-5.135-8.827
					c-1.001-3.92,0.044-7.684,0.62-9.147c-4.05-2.394-8.345-4.417-12.838-6.025c2.026,1.306,4.255,3.312,5.426,5.842
					c2.4,5.287-0.337,10.388-0.277,10.383c-0.018-0.058-4.891-3.063-7.548-7.876c-2.09-3.852-2.005-8.076-1.793-9.711
					c-1.781-0.521-3.588-0.979-5.421-1.37c-0.482-0.103-0.816-0.484-0.741-0.858c0.074-0.374,0.536-0.596,1.029-0.491
					c1.866,0.398,3.707,0.864,5.521,1.395c0.724-1.445,2.884-5.215,7.862-6.528C424.378,306.26,432.244,310.073,432.156,310.118z"/>
				<path style="fill:#3F6F7C;" d="M431.293,341.213c-0.004-0.055-3.835-3.87-5.135-8.827c-1.001-3.92,0.044-7.684,0.62-9.147
					c-4.051-2.394-8.345-4.417-12.838-6.025c2.026,1.306,4.255,3.312,5.426,5.842c2.4,5.287-0.337,10.388-0.277,10.383
					c-0.018-0.058-4.891-3.063-7.548-7.876c-2.09-3.852-2.005-8.076-1.793-9.711c-1.781-0.521-3.588-0.979-5.421-1.37
					c-0.482-0.103-0.816-0.484-0.741-0.858c0.074-0.374,0.536-0.596,1.029-0.491c1.866,0.398,3.708,0.864,5.521,1.395
					c0.724-1.445,2.884-5.215,7.862-6.528c6.379-1.74,14.245,2.073,14.157,2.118c0.025,0.053-3.292,4.545-9.352,5.693
					c-2.915,0.573-5.96,0.38-8.399,0.104c4.576,1.638,8.95,3.698,13.075,6.137c1.011-1.169,3.805-4.04,8.496-4.157
					c6.073-0.202,12.295,4.864,12.215,4.886c0.012,0.051-3.967,3.447-9.685,3.206c-2.679-0.095-5.298-0.885-7.391-1.645
					c3.727,2.497,7.223,5.316,10.446,8.419c1.127-0.799,3.938-2.508,7.696-1.784c4.993,0.922,9.202,6.079,9.145,6.085
					c0.002,0.038-3.875,2.219-8.567,1.029c-2.034-0.503-3.918-1.507-5.444-2.458c2.323,2.485,4.481,5.128,6.459,7.913
					c1.12-0.498,3.663-1.385,6.585-0.263c3.997,1.502,6.77,6.334,6.73,6.332c-0.003,0.028-3.54,1.346-7.297-0.32
					c-1.494-0.653-2.817-1.651-3.901-2.606c1.211,1.898,2.341,3.856,3.384,5.867c0.035,0.067,0.048,0.135,0.068,0.203
					c1.317,0.906,3.539,2.847,4.71,5.77c1.778,4.409,0.305,8.816,0.302,8.777c-0.014-0.03-3.393-2.873-5.018-6.88
					c-1.083-2.705-1.183-5.466-1.162-7.066c-0.043-0.055-0.091-0.104-0.125-0.169c-1.025-1.975-2.134-3.897-3.323-5.761
					c0.398,1.363,0.63,2.97,0.366,4.509c-0.69,3.886-4.075,5.756-4.052,5.767c0.01-0.031-1.733-3.855-1.251-7.599
					c0.374-2.787,1.999-4.872,2.858-5.763c-1.942-2.734-4.062-5.33-6.342-7.77c0.83,1.559,1.528,3.533,1.509,5.524
					c-0.073,4.615-3.69,7.414-3.656,7.425c0.006-0.042-2.639-4.01-2.819-8.4c-0.118-3.372,1.403-6.211,2.187-7.37
					c-3.165-3.047-6.597-5.814-10.257-8.266c1.475,1.615,2.956,3.857,3.446,6.336C434.805,337.14,431.242,341.206,431.293,341.213z"
					/>
			</g>
			<g>
				<path style="fill:#52909D;" d="M442.031,297.885l-5.079,8.017l6.593-6.678c4.16,3.876,7.823,9.012,10.49,15.744l-2.372,3.606
					c0,0,1.477-1.032,2.948-2.082c1.344,3.722,2.396,7.902,3.073,12.602c-7.102-0.012-13.205-0.733-18.465-1.964l2.733-3.496
					l-4.189,2.352l0.844-2.561l-3.533,2.58c-7.045-2.201-12.337-5.4-16.313-9.012l5.821-6.006l-8.146,3.696
					c-10.534-11.491-9.595-25.668-9.595-25.668c3.694-0.784,9.17-1.094,15.193-0.096l-2.267,3.97l4.358-3.572
					C430.088,290.592,436.432,293.194,442.031,297.885z"/>
				<path style="fill:#3F6F7C;" d="M450.667,322.986c0,0-45.184-33.207-49.371-36.336s-2.085-5.596,1.718-2.709
					C405.499,285.827,450.667,322.986,450.667,322.986z"/>
			</g>
			<g>
				<g id="_x34__52_">
					<path id="XMLID_106_" style="fill-rule:evenodd;clip-rule:evenodd;fill:#3F6F7C;" d="M457.405,270.042L457.405,270.042
						c-0.084-0.251-0.248-0.472-0.522-0.646c-1.485-0.942-2.861-1.283-4.034-2.334c-1.173-1.051-0.523-1.959-2.522-2.37
						c-1.999-0.411-1.445-0.008-2.953-0.839c-1.507-0.831-0.815-1.383-2.352-0.946c-1.536,0.436-2.076,1.656-3.383,0.693
						c-1.307-0.963-0.745-2.005-2.104-1.59c-1.358,0.415-5.463,2.928-7.617,2.427c-2.154-0.501-0.082-1.29-3.597-0.797
						c-3.516,0.492-3.721,1.492-5.458,2.06c-1.737,0.569-1.176-0.473-3.316,0.649c-2.14,1.122-6.228,4.68-7.257,9.966
						c-0.872,4.478,0.313,6.222,0.433,7.758l0,0v0c0.779,1.329,0.805,3.437,4.079,6.613c3.866,3.749,9.254,4.331,11.651,4.028
						c2.398-0.303,1.342-0.836,3.092-1.363c1.75-0.526,2.491,0.176,5.656-1.43c3.166-1.606,1.015-1.069,2.496-2.711
						c1.481-1.642,6.285-1.927,7.637-2.363c1.352-0.436,0.296-0.97,0.817-2.507c0.521-1.537,1.662-0.845,3.172-1.365
						c1.51-0.52,0.627-0.577,1.388-2.121c0.762-1.544,0.538-0.896,1.943-2.376c1.405-1.48,0.353-1.853,0.714-3.386
						c0.361-1.533,1.296-2.6,1.976-4.221C457.471,270.571,457.479,270.296,457.405,270.042z"/>
					<path id="XMLID_105_" style="fill-rule:evenodd;clip-rule:evenodd;fill:#28484F;" d="M417.408,281.22
						c-0.789,0.265-2.099,0.755-3.69,1.442c-0.358,0.143-0.714,0.287-1.068,0.432c-0.048,0.02-0.087,0.052-0.115,0.092
						c-3.457,1.572-7.821,3.913-11.092,6.773c-0.487,0.424,0.189,1.112,0.6,0.705c3.759-3.652,8.107-5.89,10.955-7.152
						c1.538-0.635,3.109-1.263,4.705-1.881c3.231,1.134,10.598,7.048,13.119,9.52c-2.233-2.451-9.604-8.311-12.88-9.613
						c2.124-0.82,4.293-1.621,6.488-2.399c2.073,0.485,11.814,6.356,13.591,7.908c-1.545-1.536-10.755-7.158-13.323-8.003
						c2.704-0.954,5.447-1.871,8.197-2.739c1.837,1.134,5.092,2.213,7.156,3.207c1.557,0.75,3.657,1.906,4.632,3.374l0.373,0.687
						c0.09,0.251,0.043,0.126,0.14,0.375c-0.613-2.198-3.18-3.6-5.093-4.542c-1.994-0.981-5.166-2.066-6.992-3.169
						c2.382-0.749,4.767-1.462,7.137-2.13c1.97,0.988,7.361,3.463,8.486,4.74c0.11,0.217,0.053,0.109,0.171,0.324l-0.068-0.171
						c-0.495-1.181-6.419-3.994-8.344-4.962c2.974-0.835,5.922-1.6,8.799-2.279c2.287-0.54,4.516-0.95,6.795-1.443
						c-2.368,0.251-5.136,0.859-7.471,1.385c-2.054,0.463-4.148,0.973-6.263,1.524c0.888-2.342,1.775-3.739,2.921-5.946
						c0.165-0.317,0.27-0.555,0.419-0.879c-0.323,0.563-0.165,0.28-0.473,0.85c-1.206,2.037-2.216,3.821-3.071,6.029
						c-1.979,0.517-3.978,1.07-5.982,1.653c0.626-1.163,1.305-2.651,1.877-3.831c0.743-1.533,1.11-2.656,1.468-4.315
						c-0.524,1.708-0.754,2.617-1.578,4.26c-0.517,1.032-1.54,2.856-1.974,3.945c-2.599,0.759-5.206,1.569-7.791,2.418
						c1.799-2.996,3.669-9.395,4.304-12.572c-0.901,3.409-2.612,9.638-4.553,12.654c-2.224,0.733-4.432,1.495-6.603,2.279
						c1.334-1.782,2.338-5.057,2.949-6.94c0.736-2.271,1.475-4.74,2.03-7.061c-0.258,0.854-0.5,1.713-0.752,2.569
						c-0.781,2.645-2.661,9.256-4.529,11.542C419.8,280.32,418.596,280.767,417.408,281.22z"/>
				</g>
			</g>
			<g>
				<path style="fill:#52909D;" d="M428.273,273.904c0.004-0.07-5.699-3.585-12.958-2.151c-3.501,0.667-6.804,2.245-9.396,3.644
					c4.36-3.871,8.307-8.123,11.807-12.684c1.648,0.848,6.043,2.794,11.318,0.824c6.85-2.493,11.509-10.918,11.41-10.907
					c-0.01-0.062-5.958-2.062-12.215,0.766c-2.939,1.305-5.501,3.356-7.49,5.14c3.031-4.448,5.66-9.15,7.859-14.047
					c1.612,0.385,5.506,1.029,9.365-1.459c5.145-3.261,7.521-10.886,7.455-10.867c-0.015-0.043-5.306-0.736-9.997,2.689
					c-2.039,1.47-3.687,3.431-4.959,5.173c1.473-3.806,2.693-7.714,3.648-11.7c1.47,0.053,4.697-0.098,7.447-2.655
					c3.777-3.461,4.701-10.08,4.657-10.061c-0.016-0.03-4.544,0.087-7.979,3.623c-1.371,1.395-2.396,3.099-3.176,4.647
					c0.498-2.655,0.88-5.339,1.141-8.046c0.009-0.09-0.007-0.172-0.016-0.257c1.06-1.598,2.664-4.753,2.66-8.532
					c0.005-5.704-3.607-9.949-3.593-9.904c-0.003,0.04-2.491,4.717-2.506,9.904c0.005,3.495,1.13,6.614,1.869,8.385
					c-0.024,0.08-0.055,0.156-0.063,0.244c-0.257,2.657-0.631,5.293-1.12,7.9c-0.167-1.695-0.628-3.588-1.611-5.182
					c-2.507-4.017-7.112-4.583-7.091-4.606c0.025,0.03-0.203,5.067,2.01,9.019c1.663,2.935,4.406,4.527,5.761,5.135
					c-0.938,3.913-2.135,7.751-3.582,11.488c0.226-2.107,0.12-4.617-0.793-6.825c-2.147-5.105-7.426-6.601-7.393-6.629
					c0.025,0.044-1.142,5.645,0.622,10.612c1.378,3.807,4.342,6.285,5.733,7.224c-2.159,4.808-4.74,9.425-7.717,13.793
					c0.919-2.458,1.564-5.617,0.999-8.595c-1.254-6.371-7.04-9.302-6.987-9.332c0.02,0.063-2.536,6.024-1.764,12.123
					c0.641,4.811,3.489,8.533,4.785,9.904c-3.437,4.478-7.312,8.652-11.593,12.454c1.671-2.36,3.253-5.592,3.425-8.932
					c0.305-6.96-5.025-11.413-4.956-11.433c0.006,0.072-4.073,5.598-4.876,12.146c-0.603,5.223,1.383,9.887,2.352,11.612
					c-1.749,1.377-3.556,2.696-5.421,3.951c-0.491,0.331-0.691,0.904-0.441,1.287c0.25,0.383,0.864,0.424,1.366,0.086
					c1.899-1.279,3.74-2.621,5.521-4.024c1.452,1.285,5.545,4.514,11.673,3.747C421.342,281.679,428.391,273.914,428.273,273.904z"
					/>
				<path style="fill:#52909D;" d="M413.392,239.678c0.02,0.063-2.536,6.024-1.764,12.123c0.641,4.811,3.489,8.533,4.785,9.904
					c-3.437,4.478-7.312,8.652-11.593,12.454c1.671-2.36,3.253-5.592,3.425-8.932c0.305-6.96-5.025-11.413-4.956-11.433
					c0.006,0.072-4.073,5.598-4.876,12.146c-0.603,5.223,1.383,9.887,2.352,11.612c-1.749,1.377-3.556,2.696-5.421,3.951
					c-0.491,0.331-0.691,0.904-0.441,1.287c0.25,0.383,0.864,0.424,1.365,0.086c1.899-1.279,3.74-2.621,5.521-4.024
					c1.452,1.285,5.545,4.513,11.673,3.747c7.88-0.919,14.929-8.684,14.81-8.695c0.004-0.07-5.699-3.585-12.958-2.151
					c-3.501,0.667-6.804,2.245-9.396,3.644c4.36-3.871,8.307-8.123,11.807-12.684c1.648,0.848,6.043,2.794,11.318,0.824
					c6.85-2.493,11.509-10.918,11.41-10.907c-0.01-0.062-5.958-2.062-12.215,0.766c-2.939,1.305-5.501,3.356-7.49,5.14
					c3.031-4.448,5.66-9.15,7.859-14.047c1.612,0.385,5.506,1.029,9.365-1.459c5.145-3.261,7.521-10.886,7.455-10.867
					c-0.015-0.043-5.306-0.736-9.997,2.689c-2.039,1.47-3.687,3.431-4.959,5.173c1.473-3.806,2.693-7.714,3.648-11.7
					c1.47,0.053,4.697-0.098,7.447-2.655c3.777-3.461,4.701-10.081,4.657-10.061c-0.016-0.03-4.544,0.087-7.979,3.623
					c-1.371,1.395-2.396,3.099-3.176,4.646c0.498-2.655,0.879-5.339,1.141-8.045c0.009-0.09-0.007-0.172-0.016-0.257
					c1.06-1.598,2.664-4.753,2.66-8.532c0.005-5.704-3.607-9.949-3.593-9.904c-0.003,0.04-2.491,4.717-2.506,9.904
					c0.005,3.495,1.13,6.614,1.869,8.385c-0.024,0.08-0.055,0.156-0.063,0.244c-0.257,2.657-0.631,5.293-1.12,7.9
					c-0.167-1.695-0.628-3.588-1.611-5.182c-2.507-4.017-7.112-4.583-7.091-4.606c0.025,0.03-0.203,5.067,2.01,9.019
					c1.663,2.935,4.406,4.527,5.761,5.135c-0.938,3.913-2.135,7.751-3.582,11.488c0.226-2.107,0.12-4.617-0.793-6.825
					c-2.147-5.105-7.426-6.601-7.393-6.629c0.025,0.044-1.142,5.645,0.622,10.612c1.378,3.807,4.342,6.285,5.733,7.225
					c-2.159,4.808-4.741,9.425-7.717,13.793c0.919-2.458,1.564-5.617,0.999-8.595C419.125,242.639,413.339,239.708,413.392,239.678z
					"/>
			</g>
		</g>
		<g>
			<g>
				<g>
					<path style="fill:#3F6F7C;" d="M217.005,327.416l-3.457-4.668l4.322,3.784c2.367-2.551,4.375-5.849,5.703-10.078l-1.609-2.096
						c0,0,0.948,0.564,1.893,1.14c0.655-2.332,1.111-4.931,1.315-7.83c-4.335,0.323-8.029,1.035-11.185,2.021l1.824,2.012
						l-2.662-1.249l0.63,1.526l-2.272-1.418c-4.203,1.657-7.291,3.846-9.557,6.227l3.821,3.408l-5.137-1.894
						c-5.919,7.483-4.715,16.097-4.715,16.097c2.29,0.314,5.646,0.26,9.279-0.618l-1.56-2.323l2.819,1.987
						C210.039,332.4,213.796,330.529,217.005,327.416z"/>
					<path style="fill:#28484F;" d="M221.161,311.709c0,0-26.105,22.283-28.523,24.38c-2.417,2.097-1.024,3.509,1.169,1.577
						C195.24,336.403,221.161,311.709,221.161,311.709z"/>
				</g>
			</g>
			<g>
				<g id="_x34__4_">
					<path id="XMLID_8_" style="fill-rule:evenodd;clip-rule:evenodd;fill:#28484F;" d="M236.342,356.485L236.342,356.485
						c0.091-0.237,0.104-0.499,0.008-0.794c-0.522-1.598-1.33-2.687-1.555-4.175c-0.226-1.489,0.806-1.763-0.418-3.282
						c-1.224-1.519-1.061-0.885-1.668-2.415c-0.606-1.529,0.24-1.516-1.159-2.128c-1.398-0.613-2.539-0.041-2.917-1.546
						c-0.378-1.505,0.67-1.932-0.584-2.452c-1.254-0.52-5.81-1.163-7.094-2.843c-1.284-1.679,0.724-1.001-2.168-2.776
						c-2.892-1.775-3.652-1.163-5.279-1.8c-1.627-0.637-0.579-1.064-2.841-1.538c-2.261-0.474-7.44-0.336-11.414,2.936
						c-3.366,2.772-3.553,4.78-4.399,5.985h0l0,0c-0.233,1.454-1.497,3.025-1.013,7.358c0.571,5.116,4.191,8.822,6.144,10.058
						c1.953,1.235,1.498,0.199,3.11,0.875c1.611,0.676,1.73,1.645,5.041,2.386c3.312,0.741,1.398-0.171,3.49-0.481
						c2.091-0.311,5.807,2.401,7.07,2.902c1.262,0.501,0.808-0.535,2.128-1.352c1.319-0.816,1.74,0.388,3.17,0.922
						c1.43,0.535,0.813-0.045,2.314-0.72c1.501-0.675,0.942-0.334,2.878-0.57c1.936-0.237,1.388-1.152,2.586-2.063
						c1.199-0.911,2.537-1.129,4.024-1.912C236.07,356.915,236.243,356.717,236.342,356.485z"/>
					<path id="XMLID_7_" style="fill-rule:evenodd;clip-rule:evenodd;fill:#3F6F7C;" d="M200.044,340.403
						c-0.743-0.285-2.008-0.72-3.599-1.181c-0.351-0.112-0.701-0.222-1.05-0.331c-0.047-0.015-0.096-0.014-0.141-0.001
						c-3.506-0.943-8.149-1.871-12.301-1.751c-0.617,0.017-0.537,0.935,0.014,0.885c4.994-0.407,9.562,0.586,12.43,1.387
						c1.521,0.467,3.061,0.959,4.615,1.474c1.693,2.802,3.53,11.643,3.886,15.001c-0.157-3.166-2.029-11.971-3.653-14.924
						c2.065,0.687,4.152,1.415,6.244,2.177c1.234,1.618,4.848,11.873,5.214,14.099c-0.205-2.073-3.579-11.821-4.959-14.006
						c2.575,0.941,5.156,1.933,7.712,2.965c0.665,1.954,2.41,4.729,3.327,6.718c0.692,1.5,1.538,3.63,1.364,5.306l-0.143,0.733
						c-0.087,0.24-0.045,0.119-0.125,0.362c0.885-1.994-0.155-4.589-0.994-6.448c-0.874-1.936-2.554-4.666-3.229-6.59
						c2.212,0.896,4.405,1.822,6.559,2.77c0.852,1.927,3.323,7.031,3.376,8.657c-0.051,0.227-0.028,0.113-0.071,0.343l0.054-0.167
						c0.353-1.172-2.305-6.85-3.137-8.735c2.702,1.193,5.341,2.422,7.876,3.671c2.015,0.993,3.909,2.046,5.889,3.069
						c-1.9-1.255-4.311-2.49-6.353-3.522c-1.797-0.908-3.651-1.805-5.546-2.685c2.079-1.187,3.583-1.678,5.771-2.609
						c0.314-0.134,0.536-0.245,0.844-0.394c-0.58,0.219-0.292,0.106-0.866,0.339c-2.128,0.769-3.958,1.47-5.932,2.578
						c-1.775-0.822-3.585-1.63-5.417-2.419c1.169-0.478,2.575-1.162,3.714-1.684c1.481-0.679,2.434-1.284,3.707-2.289
						c-1.426,0.941-2.148,1.472-3.755,2.182c-1.009,0.446-2.873,1.17-3.855,1.709c-2.379-1.021-4.794-2.009-7.217-2.955
						c3.149-1.116,8.42-4.698,10.821-6.655c-2.738,1.966-7.789,5.519-11.055,6.564c-2.086-0.812-4.178-1.593-6.256-2.335
						c2.067-0.503,4.8-2.308,6.396-3.325c1.924-1.227,3.971-2.599,5.792-3.973c-0.71,0.473-1.41,0.96-2.118,1.438
						c-2.185,1.476-7.592,5.208-10.36,5.758C202.356,341.194,201.196,340.792,200.044,340.403z"/>
				</g>
			</g>
			<g>
				<path style="fill:#52909D;" d="M200.526,313.142c0.027-0.043-2.334-4.31-7.451-5.992c-2.459-0.827-5.117-1.006-7.262-1.045
					c4.148-0.898,8.17-2.185,12.02-3.828c0.743,1.127,2.835,3.931,6.885,4.565c5.236,0.865,11.199-2.814,11.133-2.843
					c0.016-0.043-3.043-3.436-8.022-3.877c-2.33-0.222-4.688,0.164-6.587,0.585c3.512-1.739,6.859-3.782,10.003-6.103
					c0.885,0.82,3.125,2.619,6.461,2.42c4.429-0.23,8.659-4.218,8.61-4.23c0.006-0.033-3.103-2.362-7.302-1.865
					c-1.818,0.204-3.564,0.859-4.993,1.51c2.294-1.888,4.464-3.931,6.493-6.118c0.914,0.559,3.015,1.616,5.672,0.976
					c3.632-0.846,6.582-4.715,6.547-4.718c0-0.025-2.913-1.568-6.355-0.552c-1.368,0.395-2.627,1.11-3.674,1.813
					c1.264-1.506,2.465-3.073,3.598-4.696c0.037-0.054,0.057-0.111,0.082-0.168c1.243-0.635,3.388-2.063,4.735-4.461
					c2.041-3.616,1.266-7.599,1.259-7.566c-0.016,0.024-3.265,2.102-5.127,5.387c-1.245,2.219-1.646,4.599-1.809,5.986
					c-0.044,0.043-0.09,0.08-0.127,0.133c-1.112,1.594-2.291,3.132-3.532,4.611c0.499-1.135,0.883-2.5,0.829-3.863
					c-0.155-3.443-2.874-5.447-2.853-5.454c0.005,0.028-1.938,3.141-1.947,6.438c0.007,2.456,1.178,4.446,1.82,5.315
					c-1.992,2.147-4.123,4.154-6.375,6.007c0.896-1.256,1.725-2.886,1.935-4.612c0.462-4.005-2.353-6.84-2.322-6.845
					c0,0.037-2.741,3.173-3.396,6.953c-0.486,2.907,0.509,5.538,1.056,6.63c-3.087,2.279-6.374,4.285-9.821,5.992
					c1.461-1.231,2.998-3.004,3.704-5.095c1.48-4.489-1.143-8.415-1.099-8.415c-0.01,0.047-3.761,2.915-5.449,7.06
					c-1.312,3.281-0.835,6.659-0.503,7.991c-3.779,1.613-7.728,2.877-11.802,3.759c1.903-0.9,4.061-2.385,5.363-4.442
					c2.679-4.306,0.889-9.034,0.94-9.022c-0.022,0.048-4.583,2.096-7.431,5.962c-2.248,3.098-2.654,6.765-2.656,8.205
					c-1.601,0.249-3.218,0.44-4.849,0.57c-0.43,0.035-0.761,0.326-0.74,0.659c0.022,0.332,0.396,0.577,0.835,0.542
					c1.661-0.133,3.309-0.327,4.939-0.58c0.462,1.334,1.905,4.844,6.066,6.546C193.353,315.599,200.597,313.192,200.526,313.142z"/>
				<path style="fill:#52909D;" d="M203.313,286.118c-0.01,0.047-3.761,2.915-5.449,7.06c-1.312,3.281-0.835,6.659-0.502,7.991
					c-3.78,1.613-7.729,2.876-11.802,3.758c1.903-0.9,4.061-2.385,5.363-4.442c2.679-4.306,0.889-9.034,0.94-9.022
					c-0.022,0.048-4.583,2.096-7.431,5.962c-2.248,3.098-2.654,6.765-2.656,8.205c-1.601,0.249-3.218,0.44-4.849,0.57
					c-0.43,0.035-0.761,0.326-0.74,0.659c0.022,0.332,0.396,0.577,0.835,0.542c1.661-0.133,3.309-0.327,4.939-0.58
					c0.462,1.334,1.905,4.843,6.066,6.546c5.326,2.231,12.571-0.176,12.5-0.225c0.028-0.043-2.334-4.31-7.451-5.992
					c-2.459-0.827-5.117-1.006-7.262-1.045c4.148-0.898,8.17-2.185,12.02-3.828c0.743,1.127,2.835,3.931,6.885,4.565
					c5.236,0.865,11.199-2.814,11.133-2.843c0.016-0.043-3.043-3.436-8.022-3.877c-2.33-0.222-4.688,0.164-6.587,0.585
					c3.511-1.739,6.858-3.782,10.003-6.103c0.885,0.82,3.125,2.619,6.461,2.42c4.429-0.23,8.659-4.218,8.61-4.23
					c0.006-0.033-3.103-2.362-7.302-1.865c-1.818,0.204-3.564,0.859-4.993,1.51c2.294-1.888,4.464-3.931,6.493-6.118
					c0.914,0.559,3.015,1.616,5.672,0.976c3.632-0.846,6.582-4.715,6.547-4.718c0-0.025-2.913-1.568-6.355-0.552
					c-1.368,0.395-2.627,1.11-3.674,1.813c1.264-1.506,2.465-3.073,3.597-4.696c0.037-0.054,0.057-0.111,0.082-0.168
					c1.243-0.635,3.388-2.063,4.735-4.461c2.041-3.616,1.266-7.599,1.259-7.566c-0.016,0.024-3.265,2.102-5.127,5.387
					c-1.245,2.219-1.646,4.599-1.809,5.986c-0.044,0.042-0.09,0.079-0.127,0.132c-1.112,1.594-2.291,3.132-3.532,4.611
					c0.499-1.135,0.883-2.5,0.829-3.863c-0.155-3.443-2.874-5.447-2.853-5.454c0.005,0.028-1.938,3.141-1.947,6.438
					c0.007,2.456,1.178,4.446,1.82,5.315c-1.992,2.147-4.123,4.154-6.375,6.007c0.896-1.256,1.725-2.886,1.935-4.612
					c0.462-4.005-2.353-6.84-2.322-6.845c0,0.037-2.741,3.173-3.396,6.953c-0.486,2.907,0.509,5.538,1.056,6.63
					c-3.087,2.279-6.374,4.285-9.821,5.992c1.461-1.231,2.998-3.004,3.704-5.095C205.891,290.044,203.268,286.118,203.313,286.118z"
					/>
			</g>
		</g>
		<g>
			<g>
				<path style="fill:#28484F;" d="M89.73,254.053c-3.588-4.447-6.352,1.36-6.777,5.468c-0.424,4.107-2.039,21.844-2.039,21.844
					c-1.025-0.488-3.194-1.63-4.21-2.114c-0.804-0.383-1.594-0.759-2.391-1.138c-0.673-4.38-4.395-27.155-9.311-28.732
					c-5.441-1.746-4.793,3.761-2.66,8.291c2.133,4.531,8.44,18.875,8.44,18.875c-0.88-0.357-1.768-0.718-2.632-1.068
					c-1.406-0.565-2.789-1.121-4.142-1.665c-1.346-0.561-2.676-1.075-4.003-1.488c-0.182-0.061-0.349-0.117-0.529-0.177
					c-0.629-3.637-4.286-23.69-8.681-25.1c-4.834-1.551-3.671,3.839-2.363,7.367c1.308,3.528,7.38,16.506,7.38,16.506
					c-1.106-0.37-2.19-0.734-3.222-1.079c-2.279-0.819-4.434-1.36-6.33-1.884c-0.809-0.222-1.564-0.429-2.281-0.625l0.614,0.099
					c0,0-6.208-19.165-10.34-19.829c-4.133-0.664-3.332,2.634-1.012,6.297c2.32,3.663,8.193,12.736,8.193,12.736
					c-0.027-0.007-0.058-0.016-0.084-0.023c-0.716-0.196-1.346-0.369-1.893-0.519c-1.492-0.826-11.903-6.211-21.405-1.165
					c0,0-4.488,1.7,1.676,3.135c6.021,1.402,19.258-1.7,19.87-1.845c0.505,0.156,3.314,1.022,3.591,1.107
					c-2.576,1.243-12.182,6.065-14.574,9.943c-2.769,4.489,5.06,2.762,5.06,2.762s9.99-3.365,10.144-12.511
					c0.737,0.227,1.517,0.468,2.353,0.725c1.875,0.582,4.006,1.189,6.255,2.079c1.341,0.497,2.766,1.025,4.23,1.567
					c-3.069,1.587-19.173,10.136-19.041,14.728c0.146,5.075,4.673,2.894,7.734-0.222c3.061-3.116,14.03-13.496,14.03-13.496
					c0.122,0.046,0.236,0.087,0.359,0.133c1.308,0.452,2.615,1.006,3.938,1.607c1.329,0.584,2.686,1.18,4.066,1.786
					c1.377,0.611,2.777,1.231,4.195,1.859c0.473,0.244,0.958,0.494,1.435,0.74c-3.373,0.634-14.299,3.119-21.016,9.714
					c-8.016,7.87-2.28,7.223-2.28,7.223s8.259,0.967,23.902-16.624c0.712,0.367,1.417,0.73,2.136,1.101
					c1.404,0.724,2.819,1.453,4.24,2.186c1.391,0.785,2.751,1.638,4.129,2.455c1.371,0.829,2.741,1.658,4.106,2.483
					c0.021,0.014,0.042,0.029,0.063,0.044c-4.375,0.748-26.575,4.773-28.162,9.672c-1.761,5.437,4.316,4.734,8.284,2.683
					c3.968-2.051,20.983-11.586,20.983-11.586c0.915,0.637,1.831,1.274,2.737,1.905c1.919,1.25,3.677,2.666,5.395,4.057
					c-2.449,0.726-10.581,3.292-13.029,6.053c-2.892,3.263,3.652,2.912,3.652,2.912s8.314-1.358,9.947-8.507
					c0.454,0.368,0.908,0.736,1.361,1.093c1.2,0.897,2.204,1.978,3.28,2.928c1.031,0.999,2.136,1.878,3.033,2.909
					c0.932,0.995,1.839,1.963,2.717,2.899c0.187,0.2,0.348,0.407,0.523,0.611c-2.189,0.115-7.638,1.637-9.525,2.552
					c-1.887,0.916-2.68,2.576,1.739,2.773c3.698,0.165,7.093-3.685,8.107-4.95c0.522,0.631,1.023,1.263,1.523,1.857
					c0.374,0.46,0.74,0.91,1.098,1.35c0.326,0.462,0.645,0.913,0.956,1.353c0.606,0.889,1.235,1.698,1.728,2.516
					c0.148,0.244,0.287,0.474,0.429,0.708c-2.5,0.61-6.212,1.36-8.524,4.113c-1.316,1.567-2.178,3.012,2.206,2.419
					c3.27-0.442,5.739-3.988,6.784-5.763c0.166,0.275,0.333,0.55,0.49,0.809c0.409,0.714,0.732,1.393,1.052,1.993
					c0.61,1.197,1.029,2.207,1.259,2.82c0.236,0.604,0.355,1.015,0.355,1.015c0.003,0.008,0.007,0.025,0.01,0.033
					c0.269,0.861,1.185,1.34,2.046,1.071c0.861-0.269,1.34-1.185,1.071-2.046l-0.018-0.056c0,0-0.113-0.362-0.445-1.16
					c-0.325-0.79-0.796-1.818-1.503-3.113c-0.363-0.634-0.737-1.355-1.197-2.102c-0.101-0.156-0.211-0.326-0.316-0.487
					c1.205-1.958,5.236-7.813,4.548-12.787c-0.269-1.945-2.48-3.472-4.461-0.035c-2.213,3.839-1.552,9.086-0.804,11.718
					c-0.168-0.259-0.333-0.513-0.508-0.783c-0.55-0.847-1.231-1.673-1.897-2.584c-0.34-0.45-0.689-0.91-1.046-1.382
					c-0.386-0.446-0.782-0.903-1.185-1.369c-0.774-0.865-1.533-1.814-2.399-2.707c1.596-3.807,2.551-9.862,2.193-11.986
					c-0.425-2.516-2.862-3.165-4.794,0.959c-1.195,2.552-1.233,5.326-0.641,7.768c-0.922-0.947-1.998-1.773-3.018-2.7
					c-1.133-0.94-2.2-2.013-3.453-2.892c-0.279-0.206-0.558-0.42-0.837-0.63c0.755-3.88,4.987-26.683,0.901-29.941
					c-4.468-3.563-5.599,1.552-5.429,6.808c0.17,5.256,1.193,20.639,1.193,20.639c-1.12-0.819-2.266-1.622-3.473-2.356
					c-1.341-0.871-2.693-1.749-4.05-2.631c-1.409-0.792-2.823-1.588-4.237-2.383c-0.863-0.475-1.721-0.959-2.581-1.437
					C84.993,276.922,92.811,257.872,89.73,254.053z"/>
			</g>
			<g>
				<path style="fill:#52909D;" d="M99.239,254.239l-8.705,4.741l7.414-6.411c-3.753-4.603-8.853-8.774-15.687-12.017l-3.922,2.224
					c0,0,1.177-1.469,2.373-2.929c-3.787-1.657-8.071-3.041-12.923-4.071c-0.476,7.402-0.146,13.813,0.775,19.38l3.831-2.608
					l-2.74,4.204l2.727-0.704l-2.932,3.505c1.808,7.493,4.778,13.23,8.268,17.622l6.66-5.653l-4.413,8.235
					c11.25,11.77,26.091,11.767,26.091,11.767c1.072-3.796,1.772-9.481,1.146-15.828l-4.294,2.089l4.023-4.296
					C106.018,267.188,103.743,260.397,99.239,254.239z"/>
				<path style="fill:#3F6F7C;" d="M73.674,243.509c0,0,31.497,49.378,34.47,53.958c2.973,4.58,5.689,2.559,2.942-1.604
					C109.291,293.144,73.674,243.509,73.674,243.509z"/>
			</g>
			<g>
				<path style="fill:#3F6F7C;" d="M68.371,346.491l6.4,7.569l-7.775-5.968c-3.751,4.604-6.807,10.441-8.605,17.789l2.969,3.392
					c0,0-1.676-0.857-3.348-1.733c-0.859,4.043-1.351,8.518-1.38,13.478c7.346-1.027,13.558-2.644,18.825-4.669l-3.327-3.226
					l4.671,1.835l-1.24-2.529l4.024,2.165c6.974-3.283,11.994-7.349,15.591-11.654l-6.88-5.383l8.956,2.661
					c9.258-13.393,6.261-27.929,6.261-27.929c-3.934-0.284-9.644,0.177-15.734,2.071l2.912,3.784l-5.02-3.073
					C79.687,337.239,73.494,340.837,68.371,346.491z"/>
				<path style="fill:#28484F;" d="M63.021,373.695c0,0,42.007-40.812,45.894-44.648c3.886-3.836,1.358-6.088-2.164-2.558
					C104.448,328.796,63.021,373.695,63.021,373.695z"/>
			</g>
			<g>
				<g id="_x34__2_">
					<path id="XMLID_4_" style="fill-rule:evenodd;clip-rule:evenodd;fill:#3F6F7C;" d="M57.403,318.496L57.403,318.496
						c-0.1-0.233-0.124-0.494-0.039-0.793c0.459-1.617,1.223-2.737,1.39-4.233c0.167-1.496-0.875-1.73,0.289-3.296
						c1.163-1.566,1.025-0.926,1.571-2.478c0.546-1.552-0.299-1.505,1.074-2.172c1.373-0.667,2.535-0.141,2.854-1.66
						c0.318-1.519-0.746-1.904,0.487-2.473c1.233-0.569,5.759-1.391,6.976-3.12c1.217-1.729-0.763-0.972,2.057-2.859
						c2.82-1.888,3.603-1.306,5.204-2.007c1.601-0.701,0.537-1.086,2.778-1.649c2.241-0.563,7.421-0.629,11.521,2.484
						c3.473,2.637,3.739,4.636,4.631,5.807h0l0,0c0.29,1.443,1.615,2.963,1.303,7.313c-0.369,5.135-3.84,8.981-5.742,10.292
						c-1.902,1.311-1.489,0.258-3.073,0.997c-1.583,0.739-1.663,1.711-4.943,2.583c-3.28,0.871-1.404-0.116-3.506-0.343
						c-2.102-0.228-5.708,2.628-6.95,3.178c-1.241,0.55-0.828-0.503-2.179-1.267c-1.351-0.764-1.723,0.456-3.131,1.047
						c-1.408,0.591-0.815-0.013-2.341-0.628c-1.526-0.615-0.954-0.296-2.898-0.457c-1.944-0.16-1.432-1.097-2.666-1.96
						c-1.234-0.863-2.58-1.028-4.097-1.752C57.692,318.915,57.512,318.725,57.403,318.496z"/>
					<path id="XMLID_3_" style="fill-rule:evenodd;clip-rule:evenodd;fill:#28484F;" d="M93.039,300.996
						c0.731-0.314,1.978-0.798,3.55-1.322c0.346-0.125,0.692-0.25,1.036-0.372c0.047-0.017,0.096-0.018,0.141-0.007
						c3.466-1.081,8.069-2.191,12.222-2.235c0.618-0.008,0.573,0.913,0.021,0.885c-5.006-0.21-9.531,0.963-12.365,1.876
						c-1.501,0.526-3.021,1.079-4.553,1.655c-1.582,2.866-3.068,11.774-3.291,15.142c0.032-3.169,1.555-12.041,3.062-15.056
						c-2.037,0.768-4.093,1.578-6.154,2.421c-1.169,1.665-4.376,12.055-4.655,14.293c0.123-2.079,3.11-11.953,4.403-14.19
						c-2.536,1.042-5.076,2.135-7.589,3.267c-0.588,1.978-2.221,4.821-3.06,6.844c-0.632,1.526-1.393,3.688-1.154,5.355l0.171,0.727
						c0.096,0.236,0.05,0.117,0.139,0.357c-0.963-1.957-0.026-4.592,0.739-6.482c0.797-1.97,2.368-4.763,2.967-6.713
						c-2.175,0.982-4.33,1.994-6.445,3.026c-0.775,1.959-3.044,7.157-3.033,8.784c0.06,0.224,0.032,0.112,0.084,0.34l-0.06-0.165
						c-0.399-1.157,2.034-6.935,2.79-8.852c-2.653,1.299-5.241,2.63-7.725,3.979c-1.974,1.072-3.825,2.199-5.764,3.298
						c1.849-1.329,4.209-2.658,6.209-3.77c1.76-0.978,3.577-1.948,5.436-2.902c-2.124-1.104-3.647-1.536-5.869-2.379
						c-0.319-0.121-0.546-0.224-0.859-0.36c0.589,0.196,0.296,0.094,0.878,0.305c2.157,0.684,4.013,1.313,6.029,2.342
						c1.741-0.892,3.518-1.77,5.318-2.63c-1.187-0.431-2.619-1.059-3.777-1.536c-1.506-0.62-2.483-1.187-3.795-2.141
						c1.462,0.884,2.204,1.386,3.838,2.033c1.026,0.406,2.917,1.056,3.92,1.556c2.337-1.114,4.711-2.197,7.095-3.238
						c-3.19-0.991-8.599-4.363-11.075-6.223c2.813,1.857,8,5.208,11.305,6.123c2.053-0.894,4.112-1.756,6.159-2.58
						c-2.086-0.421-4.887-2.117-6.522-3.07c-1.971-1.15-4.07-2.44-5.944-3.742c0.728,0.445,1.447,0.903,2.173,1.353
						c2.242,1.388,7.792,4.904,10.579,5.345C90.76,301.878,91.903,301.43,93.039,300.996z"/>
				</g>
			</g>
			<g>
				<path style="fill:#52909D;" d="M85.366,312.22c-0.053,0.048,1.579,6.69,7.889,10.845c3.026,2.022,6.559,3.239,9.447,4.078
					c-5.945-0.305-11.862-0.038-17.676,0.774c-0.592-1.798-2.397-6.361-7.646-8.706c-6.771-3.092-16.194-0.298-16.114-0.235
					c-0.037,0.052,2.859,5.768,9.438,8.191c3.074,1.155,6.407,1.498,9.132,1.624c-5.392,1.066-10.672,2.604-15.78,4.593
					c-0.897-1.435-3.27-4.692-7.86-5.646c-6.08-1.312-13.27,2.535-13.208,2.568c-0.02,0.042,3.334,4.336,9.201,5.203
					c2.536,0.39,5.14,0.144,7.313-0.212c-3.798,1.715-7.485,3.685-11.034,5.901c-1.032-1.092-3.489-3.293-7.321-3.402
					c-5.228-0.187-10.64,3.969-10.594,3.986c-0.01,0.033,3.368,3.191,8.401,3.078c1.997-0.034,3.963-0.539,5.639-1.107
					c-2.264,1.575-4.464,3.256-6.592,5.038c-0.071,0.059-0.118,0.13-0.172,0.198c-1.916,0.404-5.343,1.551-8.046,4.303
					c-4.089,4.147-4.501,9.823-4.479,9.78c0.031-0.027,5.191-1.648,8.916-5.412c2.5-2.547,3.915-5.622,4.645-7.44
					c0.075-0.041,0.152-0.075,0.221-0.133c2.09-1.75,4.25-3.399,6.473-4.947c-1.092,1.353-2.113,3.061-2.539,4.925
					c-1.053,4.718,1.893,8.428,1.862,8.43c0.004-0.04,3.776-3.542,4.997-8.002c0.892-3.327,0.036-6.45-0.515-7.863
					c3.485-2.176,7.105-4.111,10.834-5.794c-1.674,1.372-3.394,3.274-4.311,5.534c-2.094,5.252,0.676,10.122,0.632,10.118
					c0.013-0.05,4.874-3.29,7.147-8.168c1.724-3.757,1.342-7.683,1.002-9.363c5.015-1.952,10.2-3.463,15.494-4.51
					c-2.429,1.13-5.161,2.967-6.883,5.539c-3.65,5.534-1.539,11.811-1.599,11.795c0.031-0.06,6.16-2.567,9.967-7.558
					c2.98-3.96,3.573-8.708,3.611-10.634c5.708-0.797,11.518-1.059,17.355-0.759c-2.906,0.521-6.372,1.739-8.89,4.047
					c-5.207,4.846-4.517,11.904-4.582,11.869c0.047-0.057,6.973-1.157,12.247-5.346c4.179-3.369,6.074-8.185,6.605-10.134
					c2.259,0.25,4.518,0.585,6.774,1.007c0.594,0.111,1.15-0.163,1.243-0.62c0.092-0.458-0.325-0.927-0.932-1.041
					c-2.298-0.43-4.599-0.771-6.899-1.026c-0.137-1.975-0.803-7.256-5.811-11.087C95.978,311.526,85.288,312.128,85.366,312.22z"/>
				<path style="fill:#52909D;" d="M71.682,347.783c0.031-0.06,6.16-2.567,9.967-7.558c2.98-3.96,3.573-8.708,3.611-10.634
					c5.708-0.797,11.518-1.059,17.356-0.759c-2.906,0.521-6.372,1.739-8.89,4.047c-5.207,4.846-4.517,11.904-4.582,11.869
					c0.047-0.057,6.973-1.157,12.247-5.346c4.179-3.369,6.074-8.185,6.605-10.134c2.259,0.25,4.518,0.585,6.774,1.007
					c0.594,0.111,1.15-0.163,1.243-0.621c0.092-0.458-0.325-0.927-0.932-1.04c-2.298-0.43-4.599-0.771-6.899-1.026
					c-0.137-1.975-0.803-7.256-5.811-11.087c-6.392-4.974-17.083-4.373-17.004-4.28c-0.053,0.048,1.579,6.69,7.889,10.845
					c3.026,2.022,6.559,3.239,9.447,4.078c-5.945-0.305-11.862-0.038-17.676,0.774c-0.592-1.798-2.397-6.361-7.646-8.706
					c-6.771-3.091-16.194-0.298-16.114-0.235c-0.037,0.052,2.859,5.768,9.438,8.191c3.073,1.155,6.407,1.498,9.132,1.624
					c-5.392,1.066-10.672,2.605-15.78,4.593c-0.897-1.435-3.27-4.692-7.86-5.646c-6.08-1.312-13.27,2.535-13.208,2.568
					c-0.02,0.042,3.334,4.336,9.201,5.203c2.536,0.39,5.14,0.144,7.313-0.212c-3.798,1.715-7.485,3.685-11.034,5.901
					c-1.032-1.092-3.489-3.293-7.321-3.402c-5.228-0.187-10.64,3.969-10.594,3.986c-0.01,0.033,3.368,3.191,8.401,3.078
					c1.997-0.034,3.963-0.539,5.639-1.107c-2.264,1.575-4.464,3.256-6.592,5.038c-0.071,0.059-0.118,0.13-0.172,0.198
					c-1.916,0.404-5.343,1.551-8.046,4.303c-4.089,4.147-4.501,9.823-4.479,9.78c0.031-0.027,5.191-1.648,8.916-5.412
					c2.5-2.547,3.915-5.622,4.645-7.441c0.075-0.041,0.152-0.074,0.221-0.133c2.09-1.75,4.25-3.399,6.473-4.947
					c-1.092,1.353-2.113,3.061-2.539,4.925c-1.053,4.718,1.893,8.428,1.862,8.43c0.004-0.04,3.776-3.542,4.997-8.002
					c0.892-3.327,0.036-6.45-0.515-7.863c3.485-2.176,7.105-4.111,10.834-5.794c-1.674,1.372-3.394,3.274-4.311,5.534
					c-2.094,5.252,0.676,10.122,0.632,10.118c0.013-0.05,4.874-3.29,7.147-8.168c1.724-3.757,1.342-7.683,1.002-9.363
					c5.015-1.952,10.2-3.463,15.494-4.51c-2.429,1.13-5.161,2.967-6.883,5.539C69.631,341.523,71.742,347.8,71.682,347.783z"/>
			</g>
			<g>
				<g id="_x34__3_">
					<path id="XMLID_6_" style="fill-rule:evenodd;clip-rule:evenodd;fill:#28484F;" d="M60.653,333.892L60.653,333.892
						c0.013,0.265,0.11,0.522,0.327,0.764c1.172,1.311,2.403,2.014,3.245,3.345c0.842,1.331-0.031,2.028,1.78,2.967
						c1.811,0.94,1.388,0.401,2.612,1.612c1.224,1.21,0.408,1.553,2.005,1.551c1.597-0.001,2.449-1.028,3.444,0.255
						c0.995,1.283,0.171,2.132,1.591,2.103c1.42-0.029,6.054-1.328,7.99-0.259c1.936,1.069-0.272,1.263,3.244,1.747
						c3.517,0.484,3.987-0.421,5.813-0.495c1.827-0.074,1.002,0.776,3.368,0.279c2.365-0.497,7.268-2.806,9.698-7.611
						c2.059-4.07,1.394-6.072,1.697-7.582l0,0l0,0c-0.388-1.491,0.162-3.526-2.123-7.474c-2.698-4.66-7.723-6.689-10.113-7.051
						c-2.39-0.362-1.519,0.439-3.346,0.469c-1.828,0.03-2.348-0.848-5.832-0.166c-3.484,0.682-1.268,0.752-3.14,1.928
						c-1.873,1.176-6.572,0.142-7.992,0.193c-1.419,0.051-0.549,0.853-1.469,2.19c-0.921,1.337-1.829,0.36-3.424,0.449
						c-1.595,0.089-0.76,0.385-1.914,1.662c-1.153,1.277-0.762,0.716-2.517,1.756c-1.755,1.041-0.845,1.687-1.61,3.064
						c-0.765,1.376-1.955,2.148-3.051,3.523C60.734,333.365,60.651,333.627,60.653,333.892z"/>
					<path id="XMLID_5_" style="fill-rule:evenodd;clip-rule:evenodd;fill:#3F6F7C;" d="M102.182,334.035
						c0.831-0.04,2.226-0.155,3.944-0.382c0.383-0.041,0.765-0.082,1.145-0.124c0.052-0.006,0.098-0.027,0.135-0.058
						c3.755-0.57,8.592-1.634,12.518-3.494c0.584-0.275,0.121-1.121-0.386-0.842c-4.612,2.489-9.405,3.458-12.489,3.897
						c-1.653,0.192-3.336,0.368-5.04,0.528c-2.8-1.972-8.276-9.669-10.029-12.735c1.481,2.966,6.976,10.613,9.773,12.759
						c-2.267,0.21-4.572,0.39-6.896,0.54c-1.862-1.031-9.635-9.335-10.922-11.312c1.068,1.899,8.398,9.818,10.638,11.33
						c-2.862,0.181-5.751,0.316-8.634,0.402c-1.458-1.592-4.296-3.517-6.012-5.036c-1.294-1.146-2.999-2.83-3.537-4.508
						l-0.172-0.762c-0.018-0.266-0.007-0.133-0.032-0.399c-0.01,2.282,2.078,4.33,3.662,5.758c1.651,1.488,4.408,3.395,5.864,4.955
						c-2.496,0.072-4.986,0.107-7.447,0.105c-1.626-1.487-6.139-5.338-6.874-6.873c-0.046-0.239-0.021-0.12-0.077-0.358l0.019,0.183
						c0.155,1.271,5.088,5.592,6.677,7.048c-3.09-0.007-6.133-0.074-9.087-0.205c-2.348-0.104-4.604-0.317-6.931-0.463
						c2.347,0.403,5.176,0.573,7.566,0.703c2.103,0.114,4.256,0.194,6.441,0.241c-1.492,2.011-2.727,3.114-4.431,4.925
						c-0.245,0.26-0.411,0.46-0.643,0.732c0.464-0.454,0.236-0.224,0.686-0.689c1.715-1.631,3.173-3.072,4.598-4.963
						c2.046,0.042,4.119,0.054,6.206,0.039c-0.919,0.949-1.978,2.195-2.85,3.174c-1.133,1.273-1.792,2.253-2.589,3.751
						c0.97-1.501,1.438-2.313,2.679-3.669c0.779-0.852,2.26-2.328,2.974-3.258c2.708-0.022,5.437-0.091,8.155-0.203
						c-2.547,2.393-6.09,8.04-7.567,10.924c1.796-3.035,5.14-8.561,7.829-10.935c2.34-0.099,4.671-0.231,6.974-0.393
						c-1.769,1.351-3.627,4.229-4.728,5.874c-1.327,1.984-2.711,4.158-3.878,6.241c0.481-0.752,0.947-1.512,1.424-2.267
						c1.473-2.332,5.083-8.18,7.503-9.871C99.635,334.249,100.915,334.147,102.182,334.035z"/>
				</g>
			</g>
		</g>
		<polygon style="fill:#3F5A75;" points="379.05,253.874 388.346,255.732 381.952,261.09 		"/>
		<g>
			<g>
				<g>
					<g>
						<g>
							<path style="fill:#A7A7A7;" d="M110.386,179.072h77.456c10.44,0,18.902,8.463,18.902,18.903V380.41
								c0,10.439-8.463,18.902-18.902,18.902h-82.182c-10.439,0-14.177-8.463-14.177-18.902v-59.205V242.66v-44.686
								C91.484,187.535,99.947,179.072,110.386,179.072z"/>
							<path style="fill:#494949;" d="M105.661,397.292c-10.046,0-12.155-9.18-12.155-16.881V197.974
								c0-9.308,7.572-16.881,16.881-16.881h77.456c9.308,0,16.88,7.573,16.88,16.881v182.436c0,9.308-7.572,16.881-16.88,16.881
								H105.661z"/>
							<path style="fill:#152316;" d="M137.223,190.122h21.793c0.45,0,0.814,0.529,0.814,1.181c0,0.652-0.365,1.181-0.814,1.181
								h-21.793c-0.45,0-0.814-0.529-0.814-1.181C136.408,190.651,136.773,190.122,137.223,190.122z"/>
						</g>
						<linearGradient id="SVGID_1_" gradientUnits="userSpaceOnUse" x1="196.412" y1="188.2875" x2="91.1285" y2="413.4414">
							<stop  offset="0" style="stop-color:#D2E7FA"/>
							<stop  offset="0.1771" style="stop-color:#CEE4F9"/>
							<stop  offset="0.3632" style="stop-color:#C1DDF6"/>
							<stop  offset="0.5535" style="stop-color:#ACD1F1"/>
							<stop  offset="0.7467" style="stop-color:#8FBFE9"/>
							<stop  offset="0.9402" style="stop-color:#69A9E0"/>
							<stop  offset="1" style="stop-color:#5CA1DD"/>
						</linearGradient>
						<path style="fill:url(#SVGID_1_);" d="M186.451,183.667h-7.458l-7.266,8.905c-1.775,2.176-4.412,3.435-7.194,3.435h-30.612
							c-2.782,0-5.419-1.259-7.193-3.435l-7.266-8.905h-7.457c-8.946,0-16.225,7.393-16.225,16.479v178.093
							c0,7.518,2.027,16.479,11.683,16.479h78.987c8.946,0,16.224-7.392,16.224-16.479V200.146
							C202.675,191.059,195.397,183.667,186.451,183.667z"/>
						<path style="fill:#D8D8D8;" d="M205.955,262.675c0,32.258-0.094,58.409-0.21,58.409c-0.116,0-0.21-26.151-0.21-58.409
							c0-32.258,0.094-58.409,0.21-58.409C205.861,204.266,205.955,230.417,205.955,262.675z"/>
						<path style="fill:#D8D8D8;" d="M92.632,262.675c0,32.258-0.094,58.409-0.21,58.409c-0.116,0-0.21-26.151-0.21-58.409
							c0-32.258,0.094-58.409,0.21-58.409C92.537,204.266,92.632,230.417,92.632,262.675z"/>
						<path style="fill:#D8D8D8;" d="M149.682,180.087c-18.247,0-33.04-0.094-33.04-0.21c0-0.116,14.792-0.21,33.04-0.21
							c18.247,0,33.04,0.094,33.04,0.21C182.722,179.993,167.929,180.087,149.682,180.087z"/>
						<path style="fill:#152316;" d="M163.996,191.211c0,0.731-0.592,1.323-1.323,1.323c-0.731,0-1.323-0.592-1.323-1.323
							c0-0.73,0.592-1.323,1.323-1.323C163.404,189.888,163.996,190.48,163.996,191.211z"/>
						<path style="fill:#D8D8D8;" d="M148.155,398.456c-18.247,0-33.04-0.094-33.04-0.21c0-0.116,14.792-0.21,33.04-0.21
							c18.248,0,33.04,0.094,33.04,0.21C181.195,398.362,166.402,398.456,148.155,398.456z"/>
					</g>
				</g>
			</g>
			<g>
				<g>
					<path id="XMLID_117_" style="fill:#2F3339;" d="M419.015,365.475l-147.06-0.115c-1.073-0.001-1.943-0.872-1.942-1.945
						l0.074-94.285c0.003-3.285,2.668-5.945,5.952-5.943l139.051,0.109c3.285,0.003,5.945,2.668,5.943,5.952l-0.074,94.285
						C420.958,364.607,420.088,365.476,419.015,365.475"/>
					
						<linearGradient id="XMLID_00000015349923492756431640000002877299594975302312_" gradientUnits="userSpaceOnUse" x1="358.1165" y1="295.5832" x2="279.296" y2="412.9297">
						<stop  offset="0" style="stop-color:#D2E7FA"/>
						<stop  offset="0.1771" style="stop-color:#CEE4F9"/>
						<stop  offset="0.3632" style="stop-color:#C1DDF6"/>
						<stop  offset="0.5535" style="stop-color:#ACD1F1"/>
						<stop  offset="0.7467" style="stop-color:#8FBFE9"/>
						<stop  offset="0.9402" style="stop-color:#69A9E0"/>
						<stop  offset="1" style="stop-color:#5CA1DD"/>
					</linearGradient>
					<polyline id="XMLID_118_" style="fill:url(#XMLID_00000015349923492756431640000002877299594975302312_);" points="
						415.289,360.14 275.688,360.031 275.76,268.519 415.361,268.629 415.289,360.14 					"/>
					<path id="XMLID_248_" style="fill:#929496;" d="M452.591,398.74l-214.114-0.168c-2.585-0.002-4.678-2.099-4.676-4.684v-0.167
						l223.474,0.175l0,0.167C457.273,396.648,455.176,398.742,452.591,398.74z"/>
					<path id="XMLID_249_" style="fill:#D0D2D3;" d="M452.108,395.142l-213.165-0.167c-3.872-0.003-6.021-0.78-4.801-1.735
						l33.917-26.534c1.221-0.955,4.298-1.728,6.873-1.726l141.772,0.111c2.575,0.002,5.637,0.779,6.839,1.736l33.398,26.587
						C458.145,394.372,455.98,395.145,452.108,395.142z"/>
					<polygon id="XMLID_250_" style="fill:#BBBDBF;" points="386.482,393.116 304.589,393.052 310.12,382.43 381.178,382.486 					
						"/>
					<path id="XMLID_251_" style="fill:#929496;" d="M284.051,368.857l-6.539-0.005c-0.384,0-0.577-0.109-0.43-0.243l2.499-2.278
						c0.147-0.134,0.564-0.242,0.931-0.242l6.255,0.005c0.368,0,0.56,0.109,0.43,0.243l-2.214,2.278
						C284.852,368.749,284.435,368.857,284.051,368.857z"/>
					<path id="XMLID_252_" style="fill:#929496;" d="M293.316,368.864l-6.539-0.005c-0.384,0-0.593-0.109-0.465-0.243l2.166-2.278
						c0.127-0.134,0.528-0.242,0.896-0.242l6.255,0.005c0.367,0,0.576,0.109,0.465,0.243l-1.881,2.278
						C294.101,368.756,293.7,368.865,293.316,368.864z"/>
					<path id="XMLID_253_" style="fill:#929496;" d="M302.581,368.872l-6.539-0.005c-0.384,0-0.608-0.109-0.501-0.243l1.833-2.278
						c0.108-0.134,0.493-0.242,0.86-0.242l6.255,0.005c0.367,0,0.592,0.109,0.501,0.243l-1.548,2.278
						C303.351,368.764,302.965,368.872,302.581,368.872z"/>
					<path id="XMLID_254_" style="fill:#929496;" d="M311.846,368.879l-6.539-0.005c-0.384,0-0.624-0.109-0.536-0.243l1.501-2.279
						c0.088-0.134,0.457-0.242,0.825-0.242l6.255,0.005c0.368,0,0.607,0.109,0.536,0.243l-1.216,2.279
						C312.6,368.771,312.231,368.879,311.846,368.879z"/>
					<path id="XMLID_255_" style="fill:#929496;" d="M321.112,368.886l-6.54-0.005c-0.384,0-0.64-0.109-0.571-0.243l1.168-2.279
						c0.068-0.134,0.422-0.242,0.789-0.242l6.255,0.005c0.367,0,0.623,0.109,0.571,0.243l-0.883,2.279
						C321.849,368.778,321.496,368.886,321.112,368.886z"/>
					<path id="XMLID_256_" style="fill:#929496;" d="M330.415,368.893l-6.539-0.005c-0.384,0-0.656-0.109-0.607-0.243l0.834-2.279
						c0.049-0.134,0.387-0.242,0.754-0.242l6.255,0.005c0.367,0,0.639,0.109,0.607,0.243l-0.549,2.279
						C331.137,368.785,330.799,368.894,330.415,368.893z"/>
					<path id="XMLID_257_" style="fill:#929496;" d="M339.68,368.901l-6.539-0.005c-0.384,0-0.672-0.109-0.642-0.243l0.501-2.279
						c0.029-0.134,0.351-0.242,0.719-0.242l6.255,0.005c0.367,0,0.655,0.109,0.642,0.243l-0.216,2.28
						C340.386,368.793,340.064,368.901,339.68,368.901z"/>
					<path id="XMLID_258_" style="fill:#929496;" d="M348.945,368.908l-6.539-0.005c-0.384,0-0.688-0.109-0.678-0.243l0.168-2.28
						c0.01-0.134,0.316-0.242,0.683-0.242l6.255,0.005c0.367,0,0.671,0.109,0.678,0.243l0.116,2.28
						C349.635,368.8,349.329,368.908,348.945,368.908z"/>
					<path id="XMLID_259_" style="fill:#929496;" d="M358.21,368.915l-6.539-0.005c-0.384,0-0.703-0.109-0.713-0.243l-0.164-2.28
						c-0.01-0.134,0.28-0.242,0.648-0.242l6.255,0.005c0.367,0,0.687,0.109,0.713,0.243l0.449,2.28
						C358.884,368.807,358.594,368.916,358.21,368.915z"/>
					<path id="XMLID_260_" style="fill:#929496;" d="M367.475,368.923l-6.539-0.005c-0.384,0-0.719-0.109-0.749-0.243l-0.497-2.28
						c-0.029-0.134,0.245-0.242,0.612-0.242l6.255,0.005c0.367,0,0.703,0.109,0.749,0.243l0.782,2.28
						C368.134,368.815,367.86,368.923,367.475,368.923z"/>
					<path id="XMLID_261_" style="fill:#929496;" d="M377.185,368.93l-6.539-0.005c-0.384,0-0.736-0.109-0.786-0.243l-0.845-2.28
						c-0.05-0.134,0.208-0.242,0.575-0.242l6.255,0.005c0.367,0,0.719,0.109,0.786,0.243l1.13,2.281
						C377.827,368.822,377.569,368.931,377.185,368.93z"/>
					<path id="XMLID_262_" style="fill:#929496;" d="M386.45,368.938l-6.539-0.005c-0.384,0-0.752-0.109-0.821-0.243l-1.178-2.28
						c-0.069-0.134,0.173-0.242,0.54-0.242l6.255,0.005c0.368,0,0.735,0.109,0.821,0.243l1.463,2.281
						C387.076,368.829,386.835,368.938,386.45,368.938z"/>
					<path id="XMLID_263_" style="fill:#929496;" d="M395.715,368.945l-6.539-0.005c-0.384,0-0.767-0.109-0.856-0.243l-1.511-2.281
						c-0.089-0.134,0.137-0.242,0.504-0.242l6.255,0.005c0.367,0,0.751,0.109,0.856,0.243l1.796,2.281
						C396.326,368.837,396.1,368.945,395.715,368.945z"/>
					<path id="XMLID_264_" style="fill:#929496;" d="M404.981,368.952l-6.539-0.005c-0.384,0-0.783-0.109-0.892-0.243l-1.844-2.281
						c-0.108-0.134,0.102-0.242,0.469-0.242l6.255,0.005c0.367,0,0.767,0.109,0.892,0.243l2.128,2.281
						C405.575,368.844,405.365,368.952,404.981,368.952z"/>
					<path id="XMLID_265_" style="fill:#929496;" d="M414.246,368.959l-6.539-0.005c-0.384,0-0.799-0.109-0.927-0.243l-2.176-2.281
						c-0.128-0.134,0.066-0.242,0.434-0.242l6.255,0.005c0.367,0,0.783,0.109,0.927,0.243l2.461,2.282
						C414.824,368.851,414.63,368.96,414.246,368.959z"/>
					<path id="XMLID_266_" style="fill:#929496;" d="M285.001,372.021l-10.921-0.009c-0.403,0-0.611-0.109-0.465-0.243l2.499-2.278
						c0.147-0.134,0.579-0.242,0.966-0.242l10.468,0.008c0.387,0,0.601,0.109,0.479,0.243l-2.075,2.278
						C285.83,371.913,285.404,372.022,285.001,372.021z"/>
					<path id="XMLID_267_" style="fill:#929496;" d="M294.634,372.029l-6.865-0.005c-0.403,0-0.633-0.109-0.514-0.243l2.03-2.278
						c0.119-0.134,0.529-0.242,0.916-0.242l6.581,0.005c0.387,0,0.617,0.109,0.514,0.243l-1.746,2.278
						C295.447,371.921,295.037,372.029,294.634,372.029z"/>
					<path id="XMLID_268_" style="fill:#929496;" d="M304.361,372.036l-6.865-0.005c-0.403,0-0.649-0.109-0.55-0.243l1.698-2.278
						c0.1-0.134,0.494-0.242,0.881-0.242l6.581,0.005c0.387,0,0.633,0.109,0.55,0.243l-1.413,2.278
						C305.158,371.928,304.764,372.037,304.361,372.036z"/>
					<path id="XMLID_269_" style="fill:#929496;" d="M314.087,372.044l-6.865-0.005c-0.403,0-0.665-0.109-0.585-0.243l1.365-2.279
						c0.08-0.134,0.458-0.242,0.845-0.242l6.581,0.005c0.387,0,0.648,0.109,0.585,0.243l-1.08,2.279
						C314.869,371.936,314.491,372.044,314.087,372.044z"/>
					<path id="XMLID_270_" style="fill:#929496;" d="M323.854,372.052l-6.865-0.005c-0.403,0-0.681-0.109-0.621-0.243l1.031-2.279
						c0.061-0.134,0.423-0.242,0.81-0.242l6.58,0.005c0.387,0,0.665,0.109,0.621,0.243l-0.746,2.279
						C324.62,371.944,324.257,372.052,323.854,372.052z"/>
					<path id="XMLID_271_" style="fill:#929496;" d="M333.581,372.059l-6.865-0.005c-0.403,0-0.697-0.109-0.656-0.243l0.698-2.279
						c0.041-0.134,0.388-0.242,0.774-0.242l6.581,0.005c0.387,0,0.68,0.109,0.656,0.243l-0.414,2.279
						C334.331,371.951,333.984,372.06,333.581,372.059z"/>
					<path id="XMLID_272_" style="fill:#929496;" d="M343.308,372.067l-6.865-0.005c-0.403,0-0.713-0.109-0.691-0.243l0.366-2.28
						c0.021-0.134,0.352-0.242,0.739-0.242l6.581,0.005c0.387,0,0.696,0.109,0.691,0.243l-0.081,2.28
						C344.042,371.959,343.711,372.067,343.308,372.067z"/>
					<path id="XMLID_273_" style="fill:#929496;" d="M353.035,372.075l-6.865-0.005c-0.403,0-0.729-0.109-0.727-0.243l0.033-2.28
						c0.002-0.134,0.317-0.242,0.703-0.242l6.581,0.005c0.387,0,0.712,0.109,0.727,0.243l0.252,2.28
						C353.753,371.967,353.438,372.075,353.035,372.075z"/>
					<path id="XMLID_274_" style="fill:#929496;" d="M362.761,372.082l-6.865-0.005c-0.403,0-0.745-0.109-0.762-0.243l-0.3-2.28
						c-0.018-0.134,0.281-0.242,0.668-0.242l6.581,0.005c0.387,0,0.728,0.109,0.762,0.243l0.585,2.28
						C363.464,371.974,363.165,372.083,362.761,372.082z"/>
					<path id="XMLID_275_" style="fill:#929496;" d="M372.955,372.09l-6.865-0.005c-0.403,0-0.761-0.109-0.799-0.243l-0.648-2.28
						c-0.038-0.134,0.244-0.242,0.631-0.242l6.581,0.005c0.387,0,0.744,0.109,0.799,0.243l0.933,2.28
						C373.641,371.982,373.358,372.091,372.955,372.09z"/>
					<path id="XMLID_276_" style="fill:#929496;" d="M382.682,372.098l-6.865-0.005c-0.403,0-0.777-0.109-0.835-0.243l-0.981-2.28
						c-0.058-0.134,0.209-0.242,0.596-0.242l6.581,0.005c0.387,0,0.76,0.109,0.835,0.243l1.266,2.281
						C383.352,371.99,383.085,372.098,382.682,372.098z"/>
					<path id="XMLID_277_" style="fill:#929496;" d="M392.409,372.105l-6.865-0.005c-0.403,0-0.793-0.109-0.87-0.243l-1.314-2.281
						c-0.077-0.134,0.174-0.242,0.56-0.242l6.581,0.005c0.387,0,0.776,0.109,0.87,0.243l1.599,2.281
						C393.063,371.997,392.812,372.106,392.409,372.105z"/>
					<path id="XMLID_278_" style="fill:#929496;" d="M402.135,372.113l-6.865-0.005c-0.403,0-0.809-0.109-0.906-0.243l-1.646-2.281
						c-0.097-0.134,0.138-0.242,0.525-0.242l6.581,0.005c0.387,0,0.792,0.109,0.905,0.243l1.931,2.281
						C402.774,372.005,402.539,372.113,402.135,372.113z"/>
					<path id="XMLID_279_" style="fill:#929496;" d="M417.626,372.125l-12.629-0.01c-0.403,0-0.824-0.109-0.941-0.243l-1.979-2.281
						c-0.116-0.134,0.103-0.242,0.49-0.242l12.105,0.01c0.387,0,0.817,0.109,0.962,0.243l2.461,2.281
						C418.239,372.017,418.029,372.126,417.626,372.125z"/>
					<path id="XMLID_280_" style="fill:#929496;" d="M276.16,381.611l-12.494-0.01c-0.461,0-0.716-0.109-0.57-0.243l2.499-2.278
						c0.147-0.134,0.626-0.242,1.071-0.242l12.041,0.009c0.445,0,0.706,0.109,0.584,0.243l-2.075,2.278
						C277.094,381.503,276.621,381.611,276.16,381.611z"/>
					<path id="XMLID_281_" style="fill:#929496;" d="M287.18,381.619l-7.854-0.006c-0.461,0-0.739-0.109-0.62-0.243l2.03-2.278
						c0.119-0.134,0.576-0.242,1.021-0.242l7.569,0.006c0.445,0,0.722,0.109,0.619,0.243l-1.746,2.278
						C288.099,381.512,287.642,381.62,287.18,381.619z"/>
					<path id="XMLID_282_" style="fill:#929496;" d="M298.308,381.628l-7.854-0.006c-0.461,0-0.755-0.109-0.655-0.243l1.698-2.278
						c0.1-0.134,0.541-0.242,0.986-0.242l7.569,0.006c0.445,0,0.738,0.109,0.655,0.243l-1.413,2.279
						C299.21,381.52,298.769,381.629,298.308,381.628z"/>
					<path id="XMLID_283_" style="fill:#929496;" d="M309.435,381.637l-7.854-0.006c-0.461,0-0.77-0.109-0.69-0.243l1.365-2.279
						c0.08-0.134,0.506-0.242,0.95-0.242l7.569,0.006c0.445,0,0.754,0.109,0.69,0.243l-1.08,2.279
						C310.322,381.529,309.896,381.637,309.435,381.637z"/>
					<path id="XMLID_284_" style="fill:#929496;" d="M371.573,381.686l-58.636-0.046c-0.461,0-0.787-0.109-0.726-0.243l1.025-2.279
						c0.06-0.134,0.47-0.242,0.914-0.242l56.51,0.044c0.445,0,0.842,0.109,0.888,0.243l0.777,2.28
						C372.372,381.578,372.035,381.686,371.573,381.686z"/>
					<path id="XMLID_285_" style="fill:#929496;" d="M382.716,381.694l-7.854-0.006c-0.461,0-0.875-0.109-0.923-0.243l-0.826-2.28
						c-0.048-0.134,0.273-0.242,0.717-0.242l7.569,0.006c0.445,0,0.858,0.109,0.923,0.243l1.111,2.28
						C383.498,381.586,383.177,381.695,382.716,381.694z"/>
					<path id="XMLID_286_" style="fill:#929496;" d="M393.843,381.703l-7.854-0.006c-0.461,0-0.891-0.109-0.959-0.243l-1.159-2.281
						c-0.068-0.134,0.237-0.242,0.682-0.242l7.569,0.006c0.445,0,0.874,0.109,0.959,0.243l1.443,2.281
						C394.61,381.595,394.304,381.703,393.843,381.703z"/>
					<path id="XMLID_287_" style="fill:#929496;" d="M404.97,381.712l-7.854-0.006c-0.461,0-0.906-0.109-0.994-0.243l-1.491-2.281
						c-0.088-0.134,0.202-0.242,0.646-0.242l7.569,0.006c0.445,0,0.89,0.109,0.994,0.243l1.776,2.281
						C405.721,381.604,405.431,381.712,404.97,381.712z"/>
					<path id="XMLID_288_" style="fill:#929496;" d="M416.097,381.721l-7.854-0.006c-0.461,0-0.922-0.109-1.029-0.243l-1.824-2.281
						c-0.107-0.134,0.166-0.242,0.611-0.242l7.569,0.006c0.445,0,0.906,0.109,1.03,0.243l2.109,2.281
						C416.832,381.612,416.559,381.721,416.097,381.721z"/>
					<path id="XMLID_289_" style="fill:#929496;" d="M427.255,381.729l-7.854-0.006c-0.461,0-0.938-0.109-1.065-0.243l-2.158-2.281
						c-0.127-0.134,0.131-0.242,0.576-0.242l7.569,0.006c0.445,0,0.922,0.109,1.065,0.243l2.442,2.282
						C427.974,381.621,427.716,381.73,427.255,381.729z"/>
					<path id="XMLID_290_" style="fill:#929496;" d="M287.816,375.187l-17.17-0.013c-0.423,0-0.646-0.109-0.499-0.243l2.499-2.278
						c0.147-0.134,0.595-0.242,1-0.242l16.49,0.013c0.406,0,0.645,0.109,0.534,0.243l-1.888,2.278
						C288.671,375.079,288.239,375.187,287.816,375.187z"/>
					<path id="XMLID_291_" style="fill:#929496;" d="M298.089,375.195l-7.191-0.006c-0.422,0-0.677-0.109-0.569-0.243l1.837-2.278
						c0.108-0.134,0.524-0.242,0.93-0.242l6.906,0.005c0.406,0,0.661,0.109,0.569,0.243l-1.553,2.278
						C298.928,375.087,298.511,375.195,298.089,375.195z"/>
					<path id="XMLID_292_" style="fill:#929496;" d="M308.277,375.203l-7.191-0.006c-0.422,0-0.693-0.109-0.605-0.243l1.505-2.278
						c0.089-0.134,0.489-0.242,0.895-0.242l6.906,0.006c0.406,0,0.676,0.109,0.605,0.243l-1.22,2.279
						C309.1,375.095,308.7,375.203,308.277,375.203z"/>
					<path id="XMLID_293_" style="fill:#929496;" d="M318.507,375.211l-7.191-0.006c-0.423,0-0.709-0.109-0.64-0.243l1.171-2.279
						c0.069-0.134,0.453-0.242,0.859-0.242l6.906,0.005c0.406,0,0.692,0.109,0.64,0.243l-0.886,2.279
						C319.315,375.103,318.93,375.211,318.507,375.211z"/>
					<path id="XMLID_294_" style="fill:#929496;" d="M328.696,375.219l-7.191-0.006c-0.422,0-0.725-0.109-0.676-0.243l0.838-2.279
						c0.049-0.134,0.418-0.242,0.824-0.242l6.906,0.005c0.406,0,0.708,0.109,0.676,0.243l-0.553,2.279
						C329.487,375.111,329.118,375.219,328.696,375.219z"/>
					<path id="XMLID_295_" style="fill:#929496;" d="M338.884,375.227l-7.191-0.006c-0.423,0-0.741-0.109-0.711-0.243l0.505-2.279
						c0.03-0.134,0.383-0.242,0.788-0.242l6.906,0.005c0.406,0,0.724,0.109,0.711,0.243l-0.22,2.279
						C339.66,375.119,339.307,375.227,338.884,375.227z"/>
					<path id="XMLID_296_" style="fill:#929496;" d="M349.073,375.235l-7.191-0.006c-0.422,0-0.757-0.109-0.746-0.243l0.172-2.28
						c0.01-0.134,0.347-0.242,0.753-0.242l6.906,0.005c0.406,0,0.74,0.109,0.746,0.243l0.112,2.28
						C349.832,375.127,349.495,375.235,349.073,375.235z"/>
					<path id="XMLID_297_" style="fill:#929496;" d="M359.261,375.243l-7.191-0.006c-0.423,0-0.773-0.109-0.782-0.243l-0.16-2.28
						c-0.009-0.134,0.312-0.242,0.718-0.242l6.906,0.005c0.406,0,0.756,0.109,0.782,0.243l0.445,2.28
						C360.005,375.135,359.684,375.243,359.261,375.243z"/>
					<path id="XMLID_298_" style="fill:#929496;" d="M369.45,375.251l-7.191-0.006c-0.422,0-0.788-0.109-0.817-0.243l-0.493-2.28
						c-0.029-0.134,0.276-0.242,0.682-0.242l6.906,0.005c0.406,0,0.772,0.109,0.817,0.243l0.778,2.28
						C370.177,375.143,369.872,375.251,369.45,375.251z"/>
					<path id="XMLID_299_" style="fill:#929496;" d="M379.638,375.259l-7.191-0.006c-0.423,0-0.804-0.109-0.853-0.243l-0.825-2.28
						c-0.048-0.134,0.241-0.242,0.647-0.242l6.906,0.005c0.406,0,0.787,0.109,0.853,0.243l1.11,2.281
						C380.35,375.151,380.06,375.259,379.638,375.259z"/>
					<path id="XMLID_300_" style="fill:#929496;" d="M389.826,375.267l-7.191-0.006c-0.422,0-0.82-0.109-0.888-0.243l-1.158-2.281
						c-0.068-0.134,0.206-0.242,0.612-0.242l6.906,0.005c0.406,0,0.803,0.109,0.888,0.243l1.443,2.281
						C390.523,375.159,390.249,375.267,389.826,375.267z"/>
					<path id="XMLID_301_" style="fill:#929496;" d="M400.015,375.275l-7.191-0.006c-0.422,0-0.836-0.109-0.924-0.243l-1.491-2.281
						c-0.088-0.134,0.17-0.242,0.576-0.242l6.906,0.005c0.406,0,0.819,0.109,0.923,0.243l1.776,2.281
						C400.695,375.167,400.437,375.275,400.015,375.275z"/>
					<path id="XMLID_302_" style="fill:#929496;" d="M410.203,375.283l-7.191-0.006c-0.422,0-0.852-0.109-0.959-0.243l-1.823-2.281
						c-0.107-0.134,0.135-0.242,0.541-0.242l6.906,0.005c0.406,0,0.835,0.109,0.959,0.243l2.108,2.281
						C410.868,375.175,410.626,375.283,410.203,375.283z"/>
					<path id="XMLID_303_" style="fill:#929496;" d="M420.434,375.291l-7.191-0.006c-0.422,0-0.868-0.109-0.994-0.243l-2.158-2.281
						c-0.127-0.134,0.1-0.242,0.505-0.242l6.906,0.005c0.406,0,0.851,0.109,0.994,0.243l2.442,2.282
						C421.082,375.183,420.856,375.291,420.434,375.291z"/>
					<path id="XMLID_304_" style="fill:#929496;" d="M291.295,378.415l-24.148-0.019c-0.442,0-0.681-0.109-0.534-0.243l2.498-2.278
						c0.147-0.134,0.611-0.242,1.036-0.242l23.234,0.018c0.425,0,0.689,0.109,0.59,0.243l-1.695,2.278
						C292.176,378.307,291.737,378.415,291.295,378.415z"/>
					<path id="XMLID_305_" style="fill:#929496;" d="M301.939,378.423l-7.523-0.006c-0.442,0-0.722-0.109-0.625-0.243l1.647-2.278
						c0.097-0.134,0.52-0.242,0.945-0.242l7.239,0.006c0.425,0,0.705,0.109,0.625,0.243l-1.363,2.279
						C302.804,378.315,302.381,378.424,301.939,378.423z"/>
					<path id="XMLID_306_" style="fill:#929496;" d="M312.642,378.432l-7.523-0.006c-0.442,0-0.738-0.109-0.66-0.243l1.313-2.279
						c0.077-0.134,0.484-0.242,0.91-0.242l7.239,0.006c0.425,0,0.721,0.109,0.66,0.243l-1.029,2.279
						C313.491,378.324,313.084,378.432,312.642,378.432z"/>
					<path id="XMLID_307_" style="fill:#929496;" d="M323.301,378.44l-7.523-0.006c-0.442,0-0.754-0.109-0.696-0.243l0.981-2.279
						c0.057-0.134,0.449-0.242,0.874-0.242l7.239,0.006c0.425,0,0.737,0.109,0.696,0.243l-0.696,2.279
						C324.135,378.332,323.743,378.44,323.301,378.44z"/>
					<path id="XMLID_308_" style="fill:#929496;" d="M333.96,378.448l-7.523-0.006c-0.442,0-0.77-0.109-0.731-0.243l0.648-2.279
						c0.038-0.134,0.414-0.242,0.839-0.242l7.239,0.006c0.425,0,0.753,0.109,0.731,0.243l-0.363,2.279
						C334.778,378.341,334.402,378.449,333.96,378.448z"/>
					<path id="XMLID_309_" style="fill:#929496;" d="M344.62,378.457l-7.523-0.006c-0.442,0-0.785-0.109-0.767-0.243l0.315-2.279
						c0.018-0.134,0.378-0.242,0.803-0.242l7.239,0.006c0.425,0,0.768,0.109,0.767,0.243l-0.031,2.28
						C345.421,378.349,345.062,378.457,344.62,378.457z"/>
					<path id="XMLID_310_" style="fill:#929496;" d="M355.279,378.465l-7.523-0.006c-0.442,0-0.801-0.109-0.802-0.243l-0.017-2.28
						c-0.001-0.134,0.343-0.242,0.768-0.242l7.239,0.006c0.425,0,0.784,0.109,0.802,0.243l0.302,2.28
						C356.064,378.357,355.721,378.465,355.279,378.465z"/>
					<path id="XMLID_311_" style="fill:#929496;" d="M365.938,378.474l-7.523-0.006c-0.442,0-0.817-0.109-0.837-0.243l-0.35-2.28
						c-0.021-0.134,0.307-0.242,0.733-0.242l7.239,0.006c0.425,0,0.8,0.109,0.837,0.243l0.635,2.28
						C366.708,378.366,366.38,378.474,365.938,378.474z"/>
					<path id="XMLID_312_" style="fill:#929496;" d="M376.597,378.482l-7.523-0.006c-0.442,0-0.833-0.109-0.873-0.243l-0.683-2.28
						c-0.04-0.134,0.272-0.242,0.697-0.242l7.239,0.006c0.425,0,0.816,0.109,0.873,0.243l0.967,2.28
						C377.351,378.374,377.039,378.482,376.597,378.482z"/>
					<path id="XMLID_313_" style="fill:#929496;" d="M387.256,378.49l-7.523-0.006c-0.442,0-0.849-0.109-0.908-0.243l-1.015-2.28
						c-0.06-0.134,0.237-0.242,0.662-0.242l7.239,0.006c0.425,0,0.832,0.109,0.908,0.243l1.3,2.281
						C387.994,378.382,387.698,378.491,387.256,378.49z"/>
					<path id="XMLID_314_" style="fill:#929496;" d="M397.915,378.499l-7.523-0.006c-0.442,0-0.865-0.109-0.944-0.243l-1.348-2.281
						c-0.079-0.134,0.201-0.242,0.627-0.242l7.239,0.006c0.425,0,0.848,0.109,0.944,0.243l1.633,2.281
						C398.638,378.391,398.357,378.499,397.915,378.499z"/>
					<path id="XMLID_315_" style="fill:#929496;" d="M408.574,378.507l-7.523-0.006c-0.442,0-0.88-0.109-0.979-0.243l-1.681-2.281
						c-0.099-0.134,0.166-0.242,0.591-0.242l7.238,0.006c0.425,0,0.864,0.109,0.979,0.243l1.965,2.281
						C409.281,378.399,409.016,378.507,408.574,378.507z"/>
					<path id="XMLID_316_" style="fill:#929496;" d="M423.854,378.519l-12.1-0.01c-0.442,0-0.896-0.109-1.015-0.243l-2.015-2.281
						c-0.118-0.134,0.13-0.242,0.556-0.242l11.642,0.009c0.425,0,0.886,0.109,1.03,0.243l2.442,2.282
						C424.538,378.411,424.296,378.519,423.854,378.519z"/>
					<path id="XMLID_317_" style="fill:#F1F2F2;" d="M457.07,393.542c-0.573,0.512-2.388,0.856-4.967,0.854l-213.165-0.167
						c-2.57-0.002-4.373-0.346-4.944-0.855c-0.866,0.893,1.253,1.599,4.943,1.602l213.165,0.167
						C455.8,395.145,457.933,394.439,457.07,393.542z"/>
					<path style="opacity:0.03;fill:#FFFFFF;" d="M421.033,269.249c0.002-3.285-2.658-5.95-5.943-5.952l-139.051-0.109
						c-1.195-0.001-2.305,0.354-3.238,0.959l148.161,94.748L421.033,269.249z"/>
				</g>
			</g>
			<g>
				<path style="fill:#F4D85F;" d="M107.884,296.215l91.898,4.986l5.744-34.976c0.118-2.184-1.556-4.051-3.74-4.169l-58.154-3.155
					c0,0-5.344-5.036-6.439-6.1c-1.095-1.064-1.811-1.603-3.019-1.668l-23.655-1.283c-2.184-0.118-4.051,1.556-4.169,3.74
					L107.884,296.215z"/>
				<path style="fill:#ECB42A;" d="M108.183,297.715l91.138,4.944l6.124-34.956c0.118-2.184-1.556-4.051-3.74-4.169l-58.154-3.155
					c0,0-4.737-4.563-6.439-6.1c-1.142-1.031-1.811-1.603-3.019-1.668l-23.655-1.283c-2.184-0.118-4.05,1.556-4.169,3.74
					L108.183,297.715z"/>
				<path style="fill:#D6A32C;" d="M106.567,261.7l1.616,36.016l91.138,4.944l4.413-25.193
					C180.969,279.015,133.113,274.501,106.567,261.7z"/>
				<g>
					<g>
						<polygon style="fill:#FDFBE4;" points="169.142,229.045 123.31,231.978 128.091,306.685 187.606,302.876 183.725,242.223 
													"/>
						<polygon style="opacity:0.36;fill:#E4DDAD;" points="176.754,245.259 169.142,229.045 183.725,242.223 						"/>
						<polygon style="fill:#E4DDAD;" points="174.207,243.893 169.142,229.045 183.725,242.223 						"/>
					</g>
					<g>
						
							<rect x="136.772" y="239.882" transform="matrix(0.998 -0.0639 0.0639 0.998 -15.0642 10.3111)" style="fill:#B0AE9A;" width="33.962" height="1.813"/>
						
							<rect x="132.61" y="252.325" transform="matrix(0.998 -0.0639 0.0639 0.998 -15.8572 10.3873)" style="fill:#B0AE9A;" width="43.88" height="1.813"/>
						
							<rect x="133.037" y="259.003" transform="matrix(0.998 -0.0639 0.0639 0.998 -16.2828 10.4282)" style="fill:#B0AE9A;" width="43.88" height="1.813"/>
						
							<rect x="133.465" y="265.682" transform="matrix(0.998 -0.0639 0.0639 0.998 -16.7091 10.4696)" style="fill:#B0AE9A;" width="43.88" height="1.813"/>
						
							<rect x="133.892" y="272.36" transform="matrix(0.998 -0.0639 0.0639 0.998 -17.1347 10.5105)" style="fill:#B0AE9A;" width="43.88" height="1.813"/>
						
							<rect x="134.319" y="279.039" transform="matrix(0.998 -0.0639 0.0639 0.998 -17.5598 10.551)" style="fill:#B0AE9A;" width="43.88" height="1.813"/>
						
							<rect x="134.747" y="285.717" transform="matrix(0.998 -0.0639 0.0639 0.998 -17.9854 10.592)" style="fill:#B0AE9A;" width="43.88" height="1.813"/>
						
							<rect x="135.174" y="292.396" transform="matrix(0.998 -0.0639 0.0639 0.998 -18.4111 10.6329)" style="fill:#B0AE9A;" width="43.88" height="1.813"/>
					</g>
				</g>
				<polygon style="opacity:0.63;fill:#E4DDAD;" points="125.809,271.028 128.091,306.685 187.606,302.876 185.776,274.281 				"/>
				<path style="fill:#F4D85F;" d="M192.809,330.392l-80.665-4.376c-1.118-0.061-2.066-0.844-2.336-1.932l-11.406-44.279
					c0.01-0.421,0.076-1.585,0.091-1.835c0.079-1.351,1.24-2.469,2.684-2.391l107.99,5.859c1.464,0.079,2.506,1.351,2.406,2.725
					c-0.017,0.231-0.037,1.31-0.107,1.814l-16.126,42.747C194.954,329.776,193.927,330.452,192.809,330.392z"/>
				<path style="fill:#ECB42A;" d="M192.72,332.023l-80.665-4.376c-1.118-0.061-2.066-0.844-2.336-1.931l-11.243-45.347
					c-0.412-1.663,0.901-3.251,2.612-3.158l107.99,5.858c1.711,0.093,2.845,1.814,2.255,3.422l-16.083,43.865
					C194.866,331.407,193.839,332.084,192.72,332.023z"/>
				<path style="fill:#D6A32C;" d="M103.003,277.314l-1.914-0.104c-1.711-0.093-3.024,1.495-2.612,3.158l11.243,45.347
					c0.27,1.087,1.217,1.871,2.336,1.932l80.665,4.376c1.118,0.061,2.145-0.616,2.531-1.667l6.911-18.848
					C166.128,324.535,122.263,306.254,103.003,277.314z"/>
				<path style="fill:#D6A32C;" d="M122.795,294.09c11.802,8.65,25.899,14.766,39.694,17.221c4.742,0.844,9.144,1.337,13.216,1.558
					c11.717,0.636,20.689-0.983,27.051-2.984l2.232-6.088c-7.382,2.98-21.092,6.281-41.63,2.627
					c-13.063-2.325-26.427-8.127-37.629-16.337c-5.217-3.824-9.784-8.053-13.333-12.263l-6.584-0.357
					C109.883,283.151,115.739,288.918,122.795,294.09z"/>
			</g>
			<g>
				<g>
					<polygon style="fill:#FDFBE4;" points="321.221,196.646 278.012,202.638 287.779,273.069 343.888,265.288 335.959,208.106 
											"/>
					<polygon style="opacity:0.36;fill:#E4DDAD;" points="278.012,202.638 283.389,241.416 292.221,200.668 					"/>
					<polygon style="opacity:0.36;fill:#E4DDAD;" points="329.569,211.471 321.221,196.646 335.959,208.106 					"/>
					<polygon style="fill:#E4DDAD;" points="327.06,210.355 321.221,196.646 335.959,208.106 					"/>
				</g>
				<g>
					
						<rect x="291.338" y="207.988" transform="matrix(0.9905 -0.1374 0.1374 0.9905 -25.7731 44.2133)" style="fill:#B0AE9A;" width="32.259" height="1.722"/>
					
						<rect x="288.255" y="219.719" transform="matrix(0.9905 -0.1374 0.1374 0.9905 -27.3695 44.549)" style="fill:#B0AE9A;" width="41.679" height="1.722"/>
					
						<rect x="289.128" y="226.015" transform="matrix(0.9905 -0.1374 0.1374 0.9905 -28.2261 44.7286)" style="fill:#B0AE9A;" width="41.679" height="1.722"/>
					
						<rect x="290.001" y="232.311" transform="matrix(0.9905 -0.1374 0.1374 0.9905 -29.0827 44.9082)" style="fill:#B0AE9A;" width="41.679" height="1.722"/>
					
						<rect x="290.874" y="238.608" transform="matrix(0.9905 -0.1374 0.1374 0.9905 -29.9394 45.088)" style="fill:#B0AE9A;" width="41.679" height="1.722"/>
					
						<rect x="291.747" y="244.904" transform="matrix(0.9905 -0.1374 0.1374 0.9905 -30.7959 45.2675)" style="fill:#B0AE9A;" width="41.679" height="1.722"/>
					
						<rect x="292.62" y="251.2" transform="matrix(0.9905 -0.1374 0.1374 0.9905 -31.6526 45.4472)" style="fill:#B0AE9A;" width="41.679" height="1.722"/>
					
						<rect x="293.493" y="257.496" transform="matrix(0.9905 -0.1374 0.1374 0.9905 -32.5086 45.6259)" style="fill:#B0AE9A;" width="41.679" height="1.722"/>
				</g>
			</g>
			<g>
				<path style="fill:#F4D85F;" d="M304.461,320.197l77.916-0.099l3.214-29.835c-0.002-1.852-1.505-3.351-3.357-3.349l-49.306,0.062
					c0,0-4.754-4.006-5.729-4.854c-0.975-0.848-1.606-1.27-2.63-1.268l-20.056,0.025c-1.852,0.002-3.351,1.505-3.349,3.357
					L304.461,320.197z"/>
				<path style="fill:#ECB42A;" d="M304.784,321.45l77.271-0.098l3.536-29.835c-0.002-1.852-1.505-3.351-3.357-3.349l-49.306,0.062
					c0,0-4.218-3.635-5.729-4.854c-1.013-0.817-1.606-1.27-2.63-1.268l-20.056,0.025c-1.852,0.002-3.351,1.505-3.349,3.357
					L304.784,321.45z"/>
				<path style="fill:#D6A32C;" d="M301.728,291.082l3.056,30.368l77.271-0.098l2.548-21.503
					C365.432,302.227,324.768,300.657,301.728,291.082z"/>
				<g>
					<g>
						<polygon style="fill:#FDFBE4;" points="353.09,260.543 314.486,265.173 322.033,328.098 372.163,322.085 366.035,270.997 
													"/>
						<polygon style="opacity:0.36;fill:#E4DDAD;" points="360.286,273.891 353.09,260.543 366.035,270.997 						"/>
						<polygon style="fill:#E4DDAD;" points="358.069,272.855 353.09,260.543 366.035,270.997 						"/>
					</g>
					<g>
						
							<rect x="326.257" y="270.424" transform="matrix(0.9929 -0.1191 0.1191 0.9929 -29.8717 42.4953)" style="fill:#B0AE9A;" width="28.753" height="1.535"/>
						
							<rect x="323.316" y="280.904" transform="matrix(0.9929 -0.1191 0.1191 0.9929 -31.1107 42.7195)" style="fill:#B0AE9A;" width="37.149" height="1.535"/>
						
							<rect x="323.991" y="286.53" transform="matrix(0.9929 -0.1191 0.1191 0.9929 -31.7759 42.8399)" style="fill:#B0AE9A;" width="37.149" height="1.535"/>
						
							<rect x="324.665" y="292.155" transform="matrix(0.9929 -0.1191 0.1191 0.9929 -32.441 42.9603)" style="fill:#B0AE9A;" width="37.149" height="1.535"/>
						
							<rect x="325.34" y="297.78" transform="matrix(0.9929 -0.1191 0.1191 0.9929 -33.1061 43.0807)" style="fill:#B0AE9A;" width="37.149" height="1.535"/>
						
							<rect x="326.015" y="303.405" transform="matrix(0.9929 -0.1191 0.1191 0.9929 -33.7712 43.2011)" style="fill:#B0AE9A;" width="37.149" height="1.535"/>
						
							<rect x="326.689" y="309.031" transform="matrix(0.9929 -0.1191 0.1191 0.9929 -34.4363 43.3215)" style="fill:#B0AE9A;" width="37.149" height="1.535"/>
						
							<rect x="327.364" y="314.656" transform="matrix(0.9929 -0.1191 0.1191 0.9929 -35.1014 43.4418)" style="fill:#B0AE9A;" width="37.149" height="1.535"/>
					</g>
				</g>
				<polygon style="opacity:0.63;fill:#E4DDAD;" points="318.431,298.064 322.033,328.098 372.163,322.085 369.274,298 				"/>
				<path style="fill:#F4D85F;" d="M377.852,345.1l-68.392,0.087c-0.948,0.001-1.786-0.617-2.065-1.523l-11.72-36.894
					c-0.011-0.356-0.01-1.343-0.009-1.555c0.004-1.145,0.932-2.146,2.156-2.147l91.559-0.116c1.241-0.001,2.181,1.025,2.161,2.19
					c-0.003,0.196,0.03,1.109-0.006,1.539l-11.625,36.891C379.637,344.479,378.801,345.099,377.852,345.1z"/>
				<path style="fill:#ECB42A;" d="M377.854,346.484l-68.392,0.086c-0.948,0.001-1.786-0.617-2.065-1.523l-11.632-37.804
					c-0.427-1.386,0.609-2.79,2.059-2.792l91.559-0.116c1.451-0.002,2.49,1.399,2.067,2.787l-11.536,37.834
					C379.639,345.862,378.802,346.482,377.854,346.484z"/>
				<path style="fill:#D6A32C;" d="M299.448,304.448l-1.623,0.002c-1.451,0.002-2.486,1.406-2.059,2.792l11.632,37.804
					c0.279,0.906,1.117,1.524,2.065,1.523l68.392-0.086c0.948-0.001,1.784-0.621,2.061-1.528l4.957-16.257
					C355.023,341.401,317.086,328.008,299.448,304.448z"/>
				<path style="fill:#D6A32C;" d="M316.966,317.7c10.382,6.758,22.585,11.266,34.361,12.694c4.048,0.491,7.792,0.701,11.245,0.697
					c9.934-0.013,17.443-1.802,22.727-3.792l1.601-5.251c-6.1,2.865-17.534,6.299-35.067,4.174
					c-11.151-1.353-22.72-5.63-32.575-12.044c-4.589-2.987-8.648-6.348-11.846-9.74l-5.582,0.007
					C305.538,309.059,310.758,313.66,316.966,317.7z"/>
			</g>
			<g>
				<g>
					<polygon style="fill:#FDFBE4;" points="201.059,192.054 159.646,205.759 181.986,273.263 235.764,255.466 217.626,200.66 					
						"/>
					<polygon style="opacity:0.36;fill:#E4DDAD;" points="211.95,205.125 201.059,192.054 217.626,200.66 					"/>
					<polygon style="fill:#E4DDAD;" points="209.281,204.481 201.059,192.054 217.626,200.66 					"/>
				</g>
				<g>
					
						<rect x="173.609" y="205.681" transform="matrix(0.9494 -0.3142 0.3142 0.9494 -55.2848 70.0727)" style="fill:#B0AE9A;" width="32.259" height="1.722"/>
					
						<rect x="172.62" y="216.924" transform="matrix(0.9494 -0.3142 0.3142 0.9494 -58.6287 71.811)" style="fill:#B0AE9A;" width="41.679" height="1.722"/>
					
						<rect x="174.617" y="222.959" transform="matrix(0.9494 -0.3142 0.3142 0.9494 -60.4231 72.7433)" style="fill:#B0AE9A;" width="41.679" height="1.722"/>
					
						<rect x="176.614" y="228.993" transform="matrix(0.9494 -0.3142 0.3142 0.9494 -62.2183 73.6769)" style="fill:#B0AE9A;" width="41.679" height="1.722"/>
					
						<rect x="178.611" y="235.028" transform="matrix(0.9494 -0.3142 0.3142 0.9494 -64.0133 74.6102)" style="fill:#B0AE9A;" width="41.679" height="1.722"/>
					
						<rect x="180.609" y="241.063" transform="matrix(0.9494 -0.3142 0.3142 0.9494 -65.8077 75.5424)" style="fill:#B0AE9A;" width="41.679" height="1.722"/>
					
						<rect x="182.606" y="247.097" transform="matrix(0.9494 -0.3142 0.3142 0.9494 -67.603 76.4761)" style="fill:#B0AE9A;" width="41.679" height="1.722"/>
					
						<rect x="184.603" y="253.132" transform="matrix(0.9494 -0.3142 0.3142 0.9494 -69.3974 77.4085)" style="fill:#B0AE9A;" width="41.679" height="1.722"/>
				</g>
				<polygon style="opacity:0.36;fill:#E4DDAD;" points="208.198,249.42 235.739,255.39 218.315,202.742 				"/>
			</g>
			<g>
				<g>
					<polygon style="fill:#FDFBE4;" points="277.666,178.176 230.557,167.966 213.914,244.754 275.088,258.012 288.6,195.669 					
						"/>
					<polygon style="opacity:0.36;fill:#E4DDAD;" points="280.691,196.731 277.666,178.176 288.6,195.669 					"/>
					<polygon style="fill:#E4DDAD;" points="278.513,194.62 277.666,178.176 288.6,195.669 					"/>
				</g>
				<g>
					
						<rect x="240.934" y="184.657" transform="matrix(0.9773 0.2118 -0.2118 0.9773 45.1867 -50.5978)" style="fill:#B0AE9A;" width="35.646" height="1.903"/>
					
						<rect x="232.957" y="197.446" transform="matrix(0.9773 0.2118 -0.2118 0.9773 47.8333 -49.7209)" style="fill:#B0AE9A;" width="46.056" height="1.903"/>
					
						<rect x="231.469" y="204.311" transform="matrix(0.9773 0.2118 -0.2118 0.9773 49.2536 -49.25)" style="fill:#B0AE9A;" width="46.056" height="1.903"/>
					
						<rect x="229.982" y="211.175" transform="matrix(0.9773 0.2118 -0.2118 0.9773 50.6733 -48.7786)" style="fill:#B0AE9A;" width="46.056" height="1.903"/>
					
						<rect x="228.494" y="218.04" transform="matrix(0.9773 0.2118 -0.2118 0.9773 52.0936 -48.3077)" style="fill:#B0AE9A;" width="46.056" height="1.903"/>
					
						<rect x="227.006" y="224.905" transform="matrix(0.9773 0.2118 -0.2118 0.9773 53.5145 -47.8372)" style="fill:#B0AE9A;" width="46.056" height="1.903"/>
					
						<rect x="225.518" y="231.769" transform="matrix(0.9773 0.2118 -0.2118 0.9773 54.9349 -47.3664)" style="fill:#B0AE9A;" width="46.056" height="1.903"/>
					
						<rect x="224.03" y="238.634" transform="matrix(0.9773 0.2118 -0.2118 0.9773 56.3546 -46.8951)" style="fill:#B0AE9A;" width="46.055" height="1.903"/>
				</g>
			</g>
			<path style="fill:none;stroke:#3F5A75;stroke-miterlimit:10;stroke-dasharray:5.1369;" d="M107.947,245.995
				c2.96-23.817,16.03-60.606,78.464-79.293c24.454-7.319,50.36-7.871,75.471-12.452c9.33-1.702,18.81-4.095,26.534-9.597
				c7.725-5.502,13.41-14.735,12.312-24.155c-0.532-4.561-2.732-9.026-6.432-11.745c-7.494-5.506-19.098-1.901-24.259,5.834
				c-5.161,7.735-4.926,18.038-1.994,26.863c3.856,11.608,12.115,21.694,22.734,27.764c20.613,11.781,47.746,8.124,67.491,21.309
				c10.392,6.939,17.595,18.009,21.427,29.903c3.832,11.894,4.503,24.607,3.756,37.08"/>
			<g style="opacity:0.48;">
				<path style="fill:none;stroke:#3F5A75;stroke-miterlimit:10;stroke-dasharray:5.1369;" d="M351.884,178.32
					c13.074,4.003,29.94,19.582,34.085,35.447"/>
				<path style="fill:none;stroke:#3F5A75;stroke-miterlimit:10;stroke-dasharray:5.1369;" d="M259.907,126.296
					c0.185-4.65,1.715-18.152,12.906-23.492"/>
				<path style="fill:none;stroke:#3F5A75;stroke-miterlimit:10;stroke-dasharray:5.1369;" d="M306.787,110.431
					c6.003,14.436,0.286,31.444-9.147,37.447"/>
				<path style="fill:none;stroke:#3F5A75;stroke-miterlimit:10;stroke-dasharray:5.1369;" d="M155.86,172.294
					c29.911-15.788,65.2-19.641,79.061-19.59"/>
				<path style="fill:none;stroke:#3F5A75;stroke-miterlimit:10;stroke-dasharray:5.1369;" d="M239.755,163.457
					c7.579-1.061,12.721-1.572,20.685-3.163"/>
			</g>
		</g>
		<g>
			<path style="fill:#52909D;" d="M71.848,196.677c0,0.699-0.566,1.265-1.265,1.265c-0.699,0-1.265-0.566-1.265-1.265
				c0-0.698,0.566-1.265,1.265-1.265C71.281,195.412,71.848,195.979,71.848,196.677z"/>
			<path style="fill:#52909D;" d="M84.496,144.345c0,1.484-1.203,2.688-2.688,2.688s-2.688-1.203-2.688-2.688
				c0-1.484,1.203-2.688,2.688-2.688S84.496,142.861,84.496,144.345z"/>
			<path style="fill:#52909D;" d="M133.191,150.511c0,1.572-1.274,2.846-2.846,2.846c-1.572,0-2.846-1.274-2.846-2.846
				c0-1.572,1.274-2.846,2.846-2.846C131.917,147.665,133.191,148.939,133.191,150.511z"/>
			<circle style="fill:#52909D;" cx="41.492" cy="223.238" r="0.949"/>
			<path style="fill:#52909D;" d="M66.156,395.412c0,1.135-0.92,2.055-2.055,2.055c-1.135,0-2.055-0.92-2.055-2.055
				c0-1.135,0.92-2.055,2.055-2.055C65.236,393.357,66.156,394.277,66.156,395.412z"/>
			<path style="fill:#52909D;" d="M25.998,302.922c0,1.572-1.274,2.846-2.846,2.846c-1.572,0-2.846-1.274-2.846-2.846
				c0-1.572,1.274-2.846,2.846-2.846C24.723,300.076,25.998,301.35,25.998,302.922z"/>
			<path style="fill:#52909D;" d="M230.266,121.578c0,1.834-1.486,3.32-3.32,3.32c-1.834,0-3.32-1.486-3.32-3.32
				c0-1.834,1.486-3.32,3.32-3.32C228.78,118.258,230.266,119.745,230.266,121.578z"/>
			<path style="fill:#52909D;" d="M214.14,80.472c0,1.659-1.345,3.004-3.004,3.004s-3.004-1.345-3.004-3.004
				c0-1.659,1.345-3.004,3.004-3.004S214.14,78.813,214.14,80.472z"/>
			<path style="fill:#52909D;" d="M340.306,138.811c0,1.397-1.133,2.53-2.53,2.53c-1.397,0-2.53-1.133-2.53-2.53
				c0-1.397,1.132-2.53,2.53-2.53C339.173,136.282,340.306,137.414,340.306,138.811z"/>
			<path style="fill:#52909D;" d="M409.239,98.021c0,1.048-0.85,1.897-1.897,1.897s-1.897-0.849-1.897-1.897
				c0-1.048,0.849-1.897,1.897-1.897S409.239,96.973,409.239,98.021z"/>
			<path style="fill:#52909D;" d="M431.057,188.14c0,1.746-1.416,3.162-3.162,3.162c-1.746,0-3.162-1.416-3.162-3.162
				c0-1.746,1.416-3.162,3.162-3.162C429.641,184.977,431.057,186.393,431.057,188.14z"/>
			<circle style="fill:#52909D;" cx="469.318" cy="201.104" r="0.949"/>
			<path style="fill:#52909D;" d="M396.274,150.669c0,0.437-0.354,0.791-0.79,0.791c-0.437,0-0.79-0.354-0.79-0.791
				s0.354-0.791,0.79-0.791C395.92,149.879,396.274,150.233,396.274,150.669z"/>
			<path style="fill:#52909D;" d="M477.855,329.642c0,0.961-0.779,1.739-1.739,1.739c-0.96,0-1.739-0.779-1.739-1.739
				s0.779-1.739,1.739-1.739C477.077,327.902,477.855,328.681,477.855,329.642z"/>
			<path style="fill:#52909D;" d="M456.353,372.013c0,1.31-1.062,2.372-2.372,2.372c-1.31,0-2.371-1.062-2.371-2.372
				c0-1.31,1.062-2.371,2.371-2.371C455.292,369.642,456.353,370.703,456.353,372.013z"/>
			<path style="fill:#52909D;" d="M469.318,250.906c0,1.484-1.203,2.688-2.688,2.688s-2.688-1.203-2.688-2.688
				c0-1.484,1.203-2.688,2.688-2.688S469.318,249.422,469.318,250.906z"/>
			<circle style="fill:#52909D;" cx="249.871" cy="353.199" r="1.265"/>
			<circle style="fill:#52909D;" cx="98.464" cy="425.794" r="1.455"/>
			<circle style="fill:#52909D;" cx="218.189" cy="413.738" r="1.455"/>
			<path style="fill:#52909D;" d="M285.327,456.764c0,0.459-0.372,0.831-0.831,0.831c-0.459,0-0.831-0.372-0.831-0.831
				s0.372-0.831,0.831-0.831C284.955,455.933,285.327,456.305,285.327,456.764z"/>
			<circle style="fill:#52909D;" cx="186.803" cy="449.281" r="2.91"/>
			<path style="fill:#52909D;" d="M409.626,443.877c0,1.148-0.931,2.079-2.079,2.079c-1.148,0-2.079-0.931-2.079-2.079
				c0-1.148,0.931-2.079,2.079-2.079C408.695,441.799,409.626,442.729,409.626,443.877z"/>
			<path style="fill:#52909D;" d="M462.006,428.496c0,0.918-0.744,1.663-1.663,1.663c-0.918,0-1.663-0.744-1.663-1.663
				c0-0.918,0.745-1.663,1.663-1.663C461.261,426.833,462.006,427.578,462.006,428.496z"/>
			<path style="fill:#52909D;" d="M335.629,432.029c0,1.492-1.21,2.702-2.702,2.702c-1.492,0-2.702-1.21-2.702-2.702
				c0-1.492,1.21-2.702,2.702-2.702C334.419,429.327,335.629,430.537,335.629,432.029z"/>
		</g>
		<g>
			<circle style="fill:none;stroke:#52909D;stroke-miterlimit:10;" cx="350.178" cy="95.084" r="6.465"/>
			<path style="fill:none;stroke:#52909D;stroke-miterlimit:10;" d="M369.832,164.392c0,1.714-1.389,3.103-3.103,3.103
				c-1.714,0-3.103-1.389-3.103-3.103c0-1.714,1.389-3.103,3.103-3.103C368.443,161.289,369.832,162.678,369.832,164.392z"/>
			<circle style="fill:none;stroke:#52909D;stroke-miterlimit:10;" cx="435.779" cy="135.169" r="4.396"/>
			<circle style="fill:none;stroke:#52909D;stroke-miterlimit:10;" cx="400.995" cy="196.072" r="1.94"/>
			<circle style="fill:none;stroke:#52909D;stroke-miterlimit:10;" cx="357.29" cy="234.346" r="0.646"/>
			<path style="fill:none;stroke:#52909D;stroke-miterlimit:10;" d="M474.053,230.467c0,1.643-1.332,2.974-2.974,2.974
				c-1.643,0-2.974-1.332-2.974-2.974c0-1.642,1.331-2.974,2.974-2.974C472.721,227.493,474.053,228.825,474.053,230.467z"/>
			<circle style="fill:none;stroke:#52909D;stroke-miterlimit:10;" cx="475.605" cy="350.334" r="1.81"/>
			<circle style="fill:none;stroke:#52909D;stroke-miterlimit:10;" cx="239.621" cy="333.395" r="2.198"/>
			<path style="fill:none;stroke:#52909D;stroke-miterlimit:10;" d="M24.586,322.145c0,1.428-1.158,2.586-2.586,2.586
				c-1.428,0-2.586-1.158-2.586-2.586c0-1.428,1.158-2.586,2.586-2.586C23.428,319.559,24.586,320.717,24.586,322.145z"/>
			<circle style="fill:none;stroke:#52909D;stroke-miterlimit:10;" cx="41.137" cy="194.65" r="3.879"/>
			<path style="fill:none;stroke:#52909D;stroke-miterlimit:10;" d="M63.895,160.383c0,1.071-0.868,1.94-1.94,1.94
				s-1.94-0.868-1.94-1.94c0-1.071,0.868-1.94,1.94-1.94S63.895,159.312,63.895,160.383z"/>
			<path style="fill:none;stroke:#52909D;stroke-miterlimit:10;" d="M144.323,123.531c0,2.999-2.432,5.431-5.431,5.431
				c-2.999,0-5.431-2.431-5.431-5.431c0-2.999,2.431-5.431,5.431-5.431C141.891,118.1,144.323,120.532,144.323,123.531z"/>
			<path style="fill:none;stroke:#52909D;stroke-miterlimit:10;" d="M175.098,77.498c0,0.857-0.695,1.552-1.552,1.552
				c-0.857,0-1.552-0.695-1.552-1.552c0-0.857,0.695-1.552,1.552-1.552C174.403,75.947,175.098,76.641,175.098,77.498z"/>
			<path style="fill:none;stroke:#52909D;stroke-miterlimit:10;" d="M98.549,84.481c0,1.714-1.389,3.103-3.103,3.103
				c-1.714,0-3.103-1.389-3.103-3.103c0-1.714,1.389-3.103,3.103-3.103C97.159,81.378,98.549,82.767,98.549,84.481z"/>
			<path style="fill:none;stroke:#52909D;stroke-miterlimit:10;" d="M288.111,69.999c0,1.428-1.158,2.586-2.586,2.586
				c-1.428,0-2.586-1.158-2.586-2.586c0-1.428,1.158-2.586,2.586-2.586C286.953,67.412,288.111,68.57,288.111,69.999z"/>
			<path style="fill:none;stroke:#52909D;stroke-miterlimit:10;" d="M256.227,433.484c0,2.296-1.861,4.157-4.157,4.157
				c-2.296,0-4.157-1.861-4.157-4.157s1.861-4.157,4.157-4.157C254.366,429.327,256.227,431.189,256.227,433.484z"/>
			<path style="fill:none;stroke:#52909D;stroke-miterlimit:10;" d="M385.099,423.092c0,1.837-1.489,3.326-3.326,3.326
				c-1.837,0-3.326-1.489-3.326-3.326c0-1.837,1.489-3.326,3.326-3.326C383.61,419.766,385.099,421.255,385.099,423.092z"/>
			<path style="fill:none;stroke:#52909D;stroke-miterlimit:10;" d="M147.31,425.586c0,1.837-1.489,3.326-3.326,3.326
				c-1.837,0-3.326-1.489-3.326-3.326c0-1.837,1.489-3.326,3.326-3.326C145.821,422.26,147.31,423.749,147.31,425.586z"/>
			<circle style="fill:none;stroke:#52909D;stroke-miterlimit:10;" cx="54.814" cy="461.961" r="4.781"/>
			<path style="fill:none;stroke:#52909D;stroke-miterlimit:10;" d="M362.699,460.199c0,1.633-1.324,2.957-2.957,2.957
				s-2.957-1.324-2.957-2.957s1.324-2.957,2.957-2.957S362.699,458.566,362.699,460.199z"/>
			<path style="fill:none;stroke:#52909D;stroke-miterlimit:10;" d="M402.277,37.353c0,2.261-1.833,4.094-4.094,4.094
				s-4.094-1.833-4.094-4.094s1.833-4.094,4.094-4.094S402.277,35.091,402.277,37.353z"/>
			<circle style="fill:none;stroke:#52909D;stroke-miterlimit:10;" cx="118.181" cy="45.314" r="3.867"/>
			<circle style="fill:none;stroke:#52909D;stroke-miterlimit:10;" cx="42.665" cy="94.445" r="3.412"/>
		</g>
	</g>
</g>
</svg>
