<svg width="4408" height="795" viewBox="0 0 4408 795" fill="none" xmlns="http://www.w3.org/2000/svg">
<g filter="url(#filter0_b_4_137)">
<path d="M190.4 780H0.800001L220.4 13.1999H502.4L720.8 780H531.2L368.6 136.8H354.8L190.4 780ZM533 599.4H187.4V453.6H533V599.4ZM992.656 13.1999V780H804.256V13.1999H992.656ZM1755.78 780H1563.18L1548.18 635.4C1545.78 609.8 1540.78 589 1533.18 573C1525.58 556.6 1513.98 544.6 1498.38 537C1482.78 529 1461.98 525 1435.98 525L1262.58 524.4V381L1443.18 380.4C1482.38 380.4 1510.58 371.8 1527.78 354.6C1544.98 337.4 1553.58 311.6 1553.58 277.2V265.2C1553.58 231.2 1544.98 205.8 1527.78 189C1510.98 171.8 1482.58 163.2 1442.58 163.2H1261.38V13.1999H1469.58C1563.58 13.1999 1632.18 31.3999 1675.38 67.8C1718.98 104.2 1740.78 156.6 1740.78 225V240.6C1740.78 292.2 1727.58 332.4 1701.18 361.2C1674.78 390 1634.58 406.4 1580.58 410.4V436.8L1542.18 411C1588.58 414.2 1624.58 423.8 1650.18 439.8C1675.78 455.8 1694.58 478.2 1706.58 507C1718.98 535.4 1727.98 570.8 1733.58 613.2L1755.78 780ZM1315.98 780H1132.38V13.1999H1314.78V432.6L1315.98 502.2V780ZM3079.62 780H3040.12V472C3040.12 440 3035.78 412.5 3027.12 389.5C3018.45 366.5 3004.28 348.833 2984.62 336.5C2964.95 323.833 2938.62 317.5 2905.62 317.5C2874.95 317.5 2848.28 323.5 2825.62 335.5C2803.28 347.5 2785.28 363.833 2771.62 384.5C2758.28 405.167 2749.28 429 2744.62 456L2731.12 424H2743.12C2746.78 398.667 2755.62 375.333 2769.62 354C2783.95 332.667 2803.28 315.667 2827.62 303C2852.28 290 2881.95 283.5 2916.62 283.5C2956.28 283.5 2987.95 291 3011.62 306C3035.62 320.667 3052.95 341.833 3063.62 369.5C3074.28 396.833 3079.62 429.833 3079.62 468.5V780ZM2747.62 780H2708.12V116H2747.62V281.5L2745.62 421L2747.62 425V780ZM3558.22 780H3518.22L3520.72 655L3518.72 648.5V490L3519.22 452C3519.22 407.667 3508.05 374.167 3485.72 351.5C3463.39 328.833 3428.55 317.5 3381.22 317.5C3345.22 317.5 3312.72 323.167 3283.72 334.5C3255.05 345.833 3230.39 358.667 3209.72 373L3214.22 336C3225.22 328 3238.89 320 3255.22 312C3271.89 303.667 3291.05 296.833 3312.72 291.5C3334.39 286.167 3358.72 283.5 3385.72 283.5C3415.72 283.5 3441.55 287.333 3463.22 295C3485.22 302.667 3503.22 313.833 3517.22 328.5C3531.22 342.833 3541.55 360.333 3548.22 381C3554.89 401.667 3558.22 425.167 3558.22 451.5V780ZM3344.72 790C3296.39 790 3259.05 778.667 3232.72 756C3206.72 733 3193.72 699.667 3193.72 656V643.5C3193.72 602.833 3206.39 571.833 3231.72 550.5C3257.05 528.833 3298.72 513.833 3356.72 505.5L3528.22 480L3530.22 511L3362.22 535.5C3316.55 542.167 3283.55 553.667 3263.22 570C3243.22 586.333 3233.22 610.167 3233.22 641.5V652C3233.22 686 3243.55 711.833 3264.22 729.5C3284.89 747.167 3315.05 756 3354.72 756C3387.05 756 3414.72 750 3437.72 738C3461.05 725.667 3479.72 709.167 3493.72 688.5C3508.05 667.5 3517.39 644 3521.72 618L3532.22 649H3523.22C3519.89 673.667 3511.22 696.833 3497.22 718.5C3483.22 739.833 3463.55 757.167 3438.22 770.5C3412.89 783.5 3381.72 790 3344.72 790ZM3738.76 475L3725.76 446L3736.26 442.5C3747.26 394.5 3767.76 356.5 3797.76 328.5C3827.76 300.5 3865.42 286.5 3910.76 286.5C3923.76 286.5 3935.26 287.667 3945.26 290C3955.26 292 3963.76 294.333 3970.76 297L3973.26 336C3964.92 332.333 3955.26 329.5 3944.26 327.5C3933.26 325.5 3921.26 324.5 3908.26 324.5C3868.59 324.5 3833.76 337.167 3803.76 362.5C3773.76 387.833 3752.09 425.333 3738.76 475ZM3741.76 780H3702.26V293.5H3741.26L3738.26 442L3741.76 445.5V780ZM4230.94 790C4165.6 790 4115.44 773 4080.44 739C4045.44 704.667 4027.94 656 4027.94 593V489.5C4027.94 422.167 4044.1 370.667 4076.44 335C4108.77 299.333 4155.94 281.5 4217.94 281.5C4259.27 281.5 4293.94 289.667 4321.94 306C4350.27 322 4371.6 345.167 4385.94 375.5C4400.6 405.5 4407.94 441.833 4407.94 484.5V502C4407.94 510.333 4407.77 518.833 4407.44 527.5C4407.1 535.833 4406.44 544.833 4405.44 554.5H4368.94C4369.27 541.167 4369.44 528.667 4369.44 517C4369.44 505 4369.44 494 4369.44 484C4369.44 447.667 4363.6 417 4351.94 392C4340.6 367 4323.6 348 4300.94 335C4278.6 321.667 4250.94 315 4217.94 315C4168.6 315 4131.1 329.667 4105.44 359C4079.77 388.333 4066.94 431 4066.94 487V535V541V595.5C4066.94 620.5 4070.6 642.833 4077.94 662.5C4085.27 682.167 4095.94 699 4109.94 713C4124.27 726.667 4141.94 737.167 4162.94 744.5C4183.94 751.833 4208.27 755.5 4235.94 755.5C4267.27 755.5 4296.44 750.833 4323.44 741.5C4350.44 732.167 4375.77 718.833 4399.44 701.5L4394.94 740C4374.6 755.333 4350.44 767.5 4322.44 776.5C4294.77 785.5 4264.27 790 4230.94 790ZM4395.44 554.5H4047.94V522.5H4395.44V554.5Z" fill="white" fill-opacity="0.95"/>
<path d="M1842.57 543.672C1952.92 694.714 2077.43 770.234 2216.1 770.234C2320.59 770.234 2405.39 743.216 2470.5 689.18C2500.12 664.44 2523.07 636.283 2539.34 604.707C2555.95 572.806 2564.25 540.905 2564.25 509.004C2564.25 453.991 2551.71 413.301 2526.65 386.934C2501.91 360.566 2476.03 347.383 2449.01 347.383C2421.99 347.383 2399.53 351.126 2381.63 358.613C2363.73 365.775 2346.8 374.727 2330.85 385.469C2314.9 395.885 2299.11 407.604 2283.48 420.625C2223.91 469.453 2158.65 494.193 2087.68 494.844H2086.71C2016.07 494.844 1956.66 472.708 1908.48 428.438C1860.31 384.167 1836.22 319.388 1836.22 234.102C1836.22 176.159 1856.08 124.727 1895.79 79.8047C1942.34 27.0703 2008.26 0.703125 2093.54 0.703125C2164.83 0.703125 2232.38 30.9766 2296.18 91.5234C2335.24 128.307 2366.82 152.559 2390.91 164.277C2414.99 175.996 2436.15 181.855 2454.38 181.855C2487.26 181.855 2512.65 173.392 2530.55 156.465C2548.78 139.212 2557.9 116.1 2557.9 87.1289C2557.9 58.1576 2546.18 38.7891 2522.74 29.0234C2516.23 26.4193 2509.4 25.1172 2502.23 25.1172C2480.42 25.1172 2465.12 35.3711 2456.34 55.8789C2453.73 62.0638 2452.43 68.5742 2452.43 75.4102H2428.02C2428.02 54.5768 2435.18 36.9987 2449.5 22.6758C2464.15 8.02734 2481.73 0.703125 2502.23 0.703125C2524.37 0.703125 2543.25 8.84115 2558.88 25.1172C2574.5 41.0677 2582.31 60.2734 2582.31 82.7344C2582.31 123.424 2570.76 154.349 2547.64 175.508C2525.18 196.341 2499.3 206.758 2470.01 206.758H2469.03C2439.73 206.758 2415.32 202.201 2395.79 193.086C2376.58 183.971 2358.19 172.741 2340.61 159.395C2323.04 146.048 2305.62 131.562 2288.37 115.938C2222.61 55.3906 2159.46 25.1172 2098.91 25.1172C2019.49 25.1172 1958.13 48.8802 1914.83 96.4062C1878.7 136.12 1860.63 182.344 1860.63 235.078C1860.63 311.901 1882.44 370.169 1926.06 409.883C1969.68 449.596 2024.7 469.453 2091.1 469.453C2157.51 469.453 2219.68 445.039 2277.62 396.211C2334.92 347.383 2387.65 322.969 2435.83 322.969C2477.49 322.969 2511.67 336.315 2538.37 363.008C2571.57 395.56 2588.33 442.435 2588.66 503.633C2588.66 542.044 2579.87 578.828 2562.29 613.984C2544.71 649.141 2519.98 680.065 2488.07 706.758C2418.09 765.352 2330.68 794.648 2225.87 794.648C2106.73 794.648 2000.93 749.727 1908.48 659.883C1880.16 632.214 1851.68 598.359 1823.04 558.32L1842.57 543.672Z" fill="#52C0E3"/>
</g>
<defs>
<filter id="filter0_b_4_137" x="-3.20001" y="-3.29688" width="4415.14" height="801.945" filterUnits="userSpaceOnUse" color-interpolation-filters="sRGB">
<feFlood flood-opacity="0" result="BackgroundImageFix"/>
<feGaussianBlur in="BackgroundImageFix" stdDeviation="2"/>
<feComposite in2="SourceAlpha" operator="in" result="effect1_backgroundBlur_4_137"/>
<feBlend mode="normal" in="SourceGraphic" in2="effect1_backgroundBlur_4_137" result="shape"/>
</filter>
</defs>
</svg>
