<?xml version="1.0" encoding="utf-8"?>
<!-- Generator: Adobe Illustrator 27.5.0, SVG Export Plug-In . SVG Version: 6.00 Build 0)  -->
<svg version="1.1" xmlns="http://www.w3.org/2000/svg" xmlns:xlink="http://www.w3.org/1999/xlink" x="0px" y="0px"
	 viewBox="0 0 499.999 500" style="enable-background:new 0 0 499.999 500;" xml:space="preserve">
<g id="BACKGROUND">
	<rect x="-0.001" y="0.001" style="fill:#FFFFFF;" width="500" height="500"/>
</g>
<g id="OBJECTS">
	<g style="opacity:0.15;">
		<path style="fill-rule:evenodd;clip-rule:evenodd;fill:#90BAFD;" d="M408.394,181.646c-54.692-7.362-64.933-58.259-98.414-90.64
			C271.574,53.86,200.878,50.91,160.308,90.944c-40.59,40.049-4.319,98.832-38.533,140.192
			c-29.669,34.44-97.373,22.555-92.588,89.393c3.534,49.387,42.946,60.545,87.557,61.166c70.27,0.978,141.251,2.242,211.547,0.332
			c107.935-2.93,46.376-53.164,100.276-76.988C490.592,277.622,485.402,177.286,408.394,181.646"/>
	</g>
	<path style="fill:none;stroke:#7663B7;stroke-width:1.2765;stroke-miterlimit:10;" d="M123.03,168.009c0,2.52-2.04,4.56-4.559,4.56
		c-2.518,0-4.56-2.04-4.56-4.56c0-2.516,2.042-4.559,4.56-4.559C120.99,163.451,123.03,165.494,123.03,168.009z"/>
	<path style="fill:none;stroke:#7663B7;stroke-width:1.2765;stroke-miterlimit:10;" d="M315.849,108.622
		c0,2.014-1.633,3.646-3.646,3.646c-2.014,0-3.648-1.633-3.648-3.646c0-2.016,1.634-3.647,3.648-3.647
		C314.216,104.974,315.849,106.606,315.849,108.622z"/>
	<path style="fill:none;stroke:#7663B7;stroke-width:1.2765;stroke-miterlimit:10;" d="M446.788,271.493
		c0,2.771-2.244,5.016-5.014,5.016c-2.771,0-5.016-2.244-5.016-5.016c0-2.77,2.245-5.014,5.016-5.014
		C444.543,266.479,446.788,268.723,446.788,271.493z"/>
	<circle style="fill:none;stroke:#FFBA00;stroke-width:1.2765;stroke-miterlimit:10;" cx="63.865" cy="251.421" r="4.103"/>
	<path style="fill:none;stroke:#FFBA00;stroke-width:1.2765;stroke-miterlimit:10;" d="M402.927,210.501
		c0,1.762-1.43,3.192-3.191,3.192c-1.764,0-3.191-1.431-3.191-3.192c0-1.762,1.427-3.19,3.191-3.19
		C401.498,207.311,402.927,208.74,402.927,210.501z"/>
	<path style="fill:none;stroke:#FFBA00;stroke-width:1.2765;stroke-miterlimit:10;" d="M189.999,102.731
		c0,3.274-2.653,5.928-5.927,5.928c-3.271,0-5.926-2.653-5.926-5.928c0-3.271,2.654-5.926,5.926-5.926
		C187.345,96.805,189.999,99.46,189.999,102.731z"/>
	<path style="fill:none;stroke:#FFBA00;stroke-width:1.2765;stroke-miterlimit:10;" d="M238.021,228.052
		c0,2.267-1.837,4.104-4.103,4.104c-2.268,0-4.104-1.837-4.104-4.104c0-2.266,1.836-4.104,4.104-4.104
		C236.184,223.949,238.021,225.787,238.021,228.052z"/>
	<path style="fill:none;stroke:#7663B7;stroke-width:1.2765;stroke-miterlimit:10;" d="M317.168,245.77
		c0,2.518-2.041,4.559-4.559,4.559s-4.56-2.041-4.56-4.559c0-2.518,2.042-4.558,4.56-4.558S317.168,243.253,317.168,245.77z"/>
	<g>
		<g>
			<path style="fill:#90BAFD;" d="M189.644,141.728c5.88,0,5.88-9.118,0-9.118S183.764,141.728,189.644,141.728L189.644,141.728z"/>
		</g>
	</g>
	<g>
		<g>
			<path style="fill:#90BAFD;" d="M336.708,140.035c2.94,0,2.94-4.559,0-4.559C333.768,135.476,333.768,140.035,336.708,140.035
				L336.708,140.035z"/>
		</g>
	</g>
	<g>
		<g>
			<path style="fill:#90BAFD;" d="M440.83,219.966c5.88,0,5.88-9.118,0-9.118C434.95,210.848,434.95,219.966,440.83,219.966
				L440.83,219.966z"/>
		</g>
	</g>
	<g>
		<g>
			<path style="fill:#90BAFD;" d="M60.815,182.389c2.94,0,2.94-4.559,0-4.559C57.875,177.831,57.875,182.389,60.815,182.389
				L60.815,182.389z"/>
		</g>
	</g>
	<g>
		<g>
			
				<line style="fill:none;stroke:#FFBA00;stroke-width:2.7354;stroke-linecap:round;stroke-linejoin:round;" x1="133.185" y1="286.776" x2="133.185" y2="286.776"/>
			
				<path style="fill:none;stroke:#FFBA00;stroke-width:2.7354;stroke-linecap:round;stroke-linejoin:round;stroke-dasharray:0,5.5114;" d="
				M133.358,281.267c3.327-52.885,54.277-94.893,116.644-94.893c63.444,0,115.076,43.474,116.773,97.649"/>
			
				<line style="fill:none;stroke:#FFBA00;stroke-width:2.7354;stroke-linecap:round;stroke-linejoin:round;" x1="366.818" y1="286.776" x2="366.818" y2="286.776"/>
		</g>
	</g>
	<g style="opacity:0.5;">
		<g>
			<path style="fill:#7663B7;" d="M49.402,394.077c129.892,0,259.784,0,389.677,0c3.839,0,7.678,0,11.517,0
				c8.892,0,8.892-13.789,0-13.789c-129.875,0-259.75,0-389.625,0c-3.856,0-7.712,0-11.568,0
				C40.51,380.288,40.51,394.077,49.402,394.077L49.402,394.077z"/>
		</g>
	</g>
	<g>
		<g>
			<path style="fill:none;stroke:#7663B7;stroke-width:3.6472;stroke-miterlimit:10;" d="M294.678,286.672c9.69,0,19.383,0,28.265,0
				"/>
			<g>
				<polygon style="fill:#7663B7;" points="315.898,292.856 322.085,286.672 315.898,280.489 321.148,280.489 327.331,286.672 
					321.148,292.856 				"/>
			</g>
		</g>
	</g>
	<g>
		<g>
			<path style="fill:none;stroke:#90BAFD;stroke-width:3.6472;stroke-miterlimit:10;" d="M322.943,302.174
				c-9.69,0-19.383,0-28.265,0"/>
			<g>
				<polygon style="fill:#90BAFD;" points="301.723,295.991 295.537,302.174 301.723,308.358 296.473,308.358 290.291,302.174 
					296.473,295.991 				"/>
			</g>
		</g>
	</g>
	<g>
		<path style="fill-rule:evenodd;clip-rule:evenodd;fill:#BCD6FE;" d="M128.501,211.316c0,4.905-3.708,8.882-8.287,8.882H73.037
			c-4.577,0-8.289-3.977-8.289-8.882l0,0c0-4.902,3.712-8.878,8.289-8.878h47.178C124.793,202.438,128.501,206.414,128.501,211.316
			L128.501,211.316z"/>
		<path style="fill-rule:evenodd;clip-rule:evenodd;fill:#BCD6FE;" d="M120.013,200.047c0,3.799-3.56,6.874-7.951,6.874H81.19
			c-4.394,0-7.954-3.075-7.954-6.874l0,0c0-3.793,3.56-6.869,7.954-6.869h30.872C116.454,193.178,120.013,196.254,120.013,200.047
			L120.013,200.047z"/>
		<path style="fill-rule:evenodd;clip-rule:evenodd;fill:#BCD6FE;" d="M107.518,195.855c0,6.111-4.897,11.066-10.94,11.066
			c-6.041,0-10.938-4.955-10.938-11.066s4.896-11.064,10.938-11.064C102.621,184.791,107.518,189.744,107.518,195.855z"/>
	</g>
	<g>
		<path style="fill-rule:evenodd;clip-rule:evenodd;fill:#BCD6FE;" d="M433.246,185.081c0,4.905-3.707,8.882-8.288,8.882H377.78
			c-4.575,0-8.287-3.977-8.287-8.882l0,0c0-4.903,3.712-8.88,8.287-8.88h47.178C429.539,176.201,433.246,180.177,433.246,185.081
			L433.246,185.081z"/>
		<path style="fill-rule:evenodd;clip-rule:evenodd;fill:#BCD6FE;" d="M424.758,173.812c0,3.797-3.56,6.873-7.951,6.873h-30.873
			c-4.393,0-7.954-3.076-7.954-6.873l0,0c0-3.793,3.561-6.869,7.954-6.869h30.873C421.199,166.943,424.758,170.019,424.758,173.812
			L424.758,173.812z"/>
		<path style="fill-rule:evenodd;clip-rule:evenodd;fill:#BCD6FE;" d="M412.262,169.62c0,6.111-4.897,11.065-10.939,11.065
			c-6.041,0-10.939-4.954-10.939-11.065c0-6.112,4.898-11.066,10.939-11.066C407.365,158.553,412.262,163.507,412.262,169.62z"/>
	</g>
	<g>
		<path style="fill-rule:evenodd;clip-rule:evenodd;fill:#BCD6FE;" d="M274.915,123.371c0,4.902-3.708,8.879-8.289,8.879h-47.178
			c-4.575,0-8.286-3.977-8.286-8.879l0,0c0-4.905,3.711-8.88,8.286-8.88h47.178C271.207,114.491,274.915,118.465,274.915,123.371
			L274.915,123.371z"/>
		<path style="fill-rule:evenodd;clip-rule:evenodd;fill:#BCD6FE;" d="M266.426,112.1c0,3.798-3.56,6.875-7.951,6.875h-30.873
			c-4.394,0-7.954-3.077-7.954-6.875l0,0c0-3.793,3.561-6.868,7.954-6.868h30.873C262.867,105.232,266.426,108.307,266.426,112.1
			L266.426,112.1z"/>
		<path style="fill-rule:evenodd;clip-rule:evenodd;fill:#BCD6FE;" d="M253.93,107.907c0,6.114-4.897,11.068-10.939,11.068
			c-6.041,0-10.939-4.954-10.939-11.068c0-6.111,4.897-11.063,10.939-11.063C249.033,96.843,253.93,101.795,253.93,107.907z"/>
	</g>
	<g>
		<g>
			<path style="fill:#FFBA00;" d="M63.865,317.051c-6.719,0-12.186-5.467-12.186-12.186c0-6.721,5.467-12.188,12.186-12.188
				c6.721,0,12.186,5.467,12.186,12.188C76.05,311.585,70.585,317.051,63.865,317.051z M63.865,298.528
				c-3.493,0-6.336,2.842-6.336,6.338c0,3.494,2.843,6.338,6.336,6.338c3.495,0,6.338-2.844,6.338-6.338
				C70.203,301.37,67.36,298.528,63.865,298.528z"/>
		</g>
		<g>
			<g>
				<rect x="60.94" y="289.024" style="fill:#FFBA00;" width="5.85" height="6.822"/>
			</g>
			<g>
				<rect x="60.94" y="313.881" style="fill:#FFBA00;" width="5.85" height="6.824"/>
			</g>
			<g>
				<rect x="48.023" y="301.94" style="fill:#FFBA00;" width="6.824" height="5.85"/>
			</g>
			<g>
				<rect x="72.883" y="301.94" style="fill:#FFBA00;" width="6.823" height="5.85"/>
			</g>
			<g>
				
					<rect x="52.151" y="292.663" transform="matrix(0.7069 -0.7073 0.7073 0.7069 -193.2766 125.7374)" style="fill:#FFBA00;" width="5.849" height="6.825"/>
			</g>
			<g>
				
					<rect x="69.729" y="310.241" transform="matrix(0.707 -0.7072 0.7072 0.707 -200.5228 143.2666)" style="fill:#FFBA00;" width="5.85" height="6.825"/>
			</g>
			<g>
				
					<rect x="51.663" y="310.729" transform="matrix(0.7072 -0.707 0.707 0.7072 -205.6333 130.7799)" style="fill:#FFBA00;" width="6.826" height="5.85"/>
			</g>
			<g>
				
					<rect x="69.242" y="293.151" transform="matrix(0.7069 -0.7073 0.7073 0.7069 -188.1133 138.1523)" style="fill:#FFBA00;" width="6.824" height="5.849"/>
			</g>
		</g>
	</g>
	<g>
		<g>
			<path style="fill:#FFBA00;" d="M366.818,140.039c-6.721,0-12.186-5.466-12.186-12.186c0-6.721,5.465-12.188,12.186-12.188
				c6.72,0,12.186,5.467,12.186,12.188C379.003,134.573,373.538,140.039,366.818,140.039z M366.818,121.515
				c-3.494,0-6.337,2.842-6.337,6.338c0,3.493,2.843,6.337,6.337,6.337c3.492,0,6.335-2.844,6.335-6.337
				C373.153,124.357,370.31,121.515,366.818,121.515z"/>
		</g>
		<g>
			<g>
				<rect x="363.893" y="112.01" style="fill:#FFBA00;" width="5.848" height="6.824"/>
			</g>
			<g>
				<rect x="363.893" y="136.871" style="fill:#FFBA00;" width="5.848" height="6.824"/>
			</g>
			<g>
				<rect x="350.976" y="124.927" style="fill:#FFBA00;" width="6.823" height="5.851"/>
			</g>
			<g>
				<rect x="375.835" y="124.927" style="fill:#FFBA00;" width="6.825" height="5.851"/>
			</g>
			<g>
				
					<rect x="355.103" y="115.651" transform="matrix(0.707 -0.7073 0.7073 0.707 20.7087 288.1066)" style="fill:#FFBA00;" width="5.85" height="6.825"/>
			</g>
			<g>
				
					<rect x="372.683" y="133.229" transform="matrix(0.707 -0.7072 0.7072 0.707 13.4105 305.6534)" style="fill:#FFBA00;" width="5.849" height="6.825"/>
			</g>
			<g>
				
					<rect x="354.616" y="133.717" transform="matrix(0.707 -0.7072 0.7072 0.707 8.2626 293.2276)" style="fill:#FFBA00;" width="6.824" height="5.849"/>
			</g>
			<g>
				
					<rect x="372.195" y="116.138" transform="matrix(0.7073 -0.7069 0.7069 0.7073 25.7787 300.3828)" style="fill:#FFBA00;" width="6.825" height="5.85"/>
			</g>
		</g>
	</g>
	<g>
		<g>
			<path style="fill:#7663B7;" d="M124.623,133.761c-5.041,0-9.139-4.1-9.139-9.141c0-5.037,4.098-9.14,9.139-9.14
				c5.039,0,9.14,4.103,9.14,9.14C133.762,129.662,129.662,133.761,124.623,133.761z M124.623,119.869
				c-2.619,0-4.754,2.132-4.754,4.752c0,2.622,2.135,4.753,4.754,4.753s4.752-2.131,4.752-4.753
				C129.374,122.001,127.242,119.869,124.623,119.869z"/>
		</g>
		<g>
			<g>
				<rect x="122.427" y="112.74" style="fill:#7663B7;" width="4.389" height="5.119"/>
			</g>
			<g>
				<rect x="122.427" y="131.386" style="fill:#7663B7;" width="4.389" height="5.117"/>
			</g>
			<g>
				<rect x="112.74" y="122.428" style="fill:#7663B7;" width="5.119" height="4.386"/>
			</g>
			<g>
				<rect x="131.385" y="122.428" style="fill:#7663B7;" width="5.117" height="4.386"/>
			</g>
			<g>
				
					<rect x="115.835" y="115.47" transform="matrix(0.7069 -0.7073 0.7073 0.7069 -48.8897 118.0733)" style="fill:#7663B7;" width="4.388" height="5.119"/>
			</g>
			<g>
				
					<rect x="129.019" y="128.654" transform="matrix(0.7069 -0.7073 0.7073 0.7069 -54.351 131.2647)" style="fill:#7663B7;" width="4.388" height="5.12"/>
			</g>
			<g>
				
					<rect x="115.47" y="129.02" transform="matrix(0.7069 -0.7073 0.7073 0.7069 -58.2154 121.9479)" style="fill:#7663B7;" width="5.119" height="4.388"/>
			</g>
			<g>
				
					<rect x="128.654" y="115.836" transform="matrix(0.7069 -0.7073 0.7073 0.7069 -45.0254 127.4058)" style="fill:#7663B7;" width="5.119" height="4.388"/>
			</g>
		</g>
	</g>
	<g>
		<g>
			<path style="fill:#7663B7;" d="M440.094,339.825c-5.041,0-9.141-4.102-9.141-9.139c0-5.041,4.1-9.139,9.141-9.139
				c5.038,0,9.139,4.098,9.139,9.139C449.233,335.723,445.132,339.825,440.094,339.825z M440.094,325.932
				c-2.622,0-4.755,2.133-4.755,4.754s2.133,4.752,4.755,4.752c2.618,0,4.751-2.131,4.751-4.752S442.712,325.932,440.094,325.932z"
				/>
		</g>
		<g>
			<g>
				<rect x="437.901" y="318.803" style="fill:#7663B7;" width="4.385" height="5.117"/>
			</g>
			<g>
				<rect x="437.901" y="337.448" style="fill:#7663B7;" width="4.385" height="5.119"/>
			</g>
			<g>
				<rect x="428.21" y="328.493" style="fill:#7663B7;" width="5.12" height="4.385"/>
			</g>
			<g>
				<rect x="446.856" y="328.493" style="fill:#7663B7;" width="5.119" height="4.385"/>
			</g>
			<g>
				
					<rect x="431.308" y="321.534" transform="matrix(0.7069 -0.7073 0.7073 0.7069 -102.1776 401.6045)" style="fill:#7663B7;" width="4.387" height="5.118"/>
			</g>
			<g>
				
					<rect x="444.491" y="334.718" transform="matrix(0.707 -0.7072 0.7072 0.707 -107.6508 414.71)" style="fill:#7663B7;" width="4.388" height="5.119"/>
			</g>
			<g>
				
					<rect x="430.942" y="335.084" transform="matrix(0.7076 -0.7067 0.7067 0.7076 -111.5645 404.9754)" style="fill:#7663B7;" width="5.119" height="4.387"/>
			</g>
			<g>
				
					<rect x="444.126" y="321.899" transform="matrix(0.7073 -0.7069 0.7069 0.7073 -98.3656 410.6028)" style="fill:#7663B7;" width="5.118" height="4.388"/>
			</g>
		</g>
	</g>
	<g>
		<path style="fill-rule:evenodd;clip-rule:evenodd;fill:#90BAFD;stroke:#90BAFD;stroke-width:4.559;stroke-miterlimit:10;" d="
			M386.371,423.442c0,5.818-4.719,10.537-10.536,10.537H124.164c-5.818,0-10.535-4.719-10.535-10.537l0,0
			c0-5.816,4.717-10.535,10.535-10.535h251.671C381.652,412.907,386.371,417.625,386.371,423.442L386.371,423.442z"/>
		<path style="fill-rule:evenodd;clip-rule:evenodd;fill:#A6C8FD;" d="M386.371,423.442c0,5.818-4.719,10.537-10.536,10.537H124.164
			c-5.818,0-10.535-4.719-10.535-10.537l0,0c0-5.816,4.717-10.535,10.535-10.535h251.671
			C381.652,412.907,386.371,417.625,386.371,423.442L386.371,423.442z"/>
		<path style="fill-rule:evenodd;clip-rule:evenodd;fill:#FFFFFF;" d="M288.808,423.442c0,5.818-4.718,10.537-10.536,10.537H124.164
			c-5.818,0-10.535-4.719-10.535-10.537l0,0c0-5.816,4.717-10.535,10.535-10.535h154.108
			C284.09,412.907,288.808,417.625,288.808,423.442L288.808,423.442z"/>
		<g style="opacity:0.5;">
			<defs>
				<path id="SVGID_1_" style="opacity:0.5;" d="M288.808,423.442c0,5.818-4.718,10.537-10.536,10.537H124.164
					c-5.818,0-10.535-4.719-10.535-10.537l0,0c0-5.816,4.717-10.535,10.535-10.535h154.108
					C284.09,412.907,288.808,417.625,288.808,423.442L288.808,423.442z"/>
			</defs>
			<clipPath id="SVGID_00000151504984123382997490000004587603769951512739_">
				<use xlink:href="#SVGID_1_"  style="overflow:visible;"/>
			</clipPath>
			<g style="clip-path:url(#SVGID_00000151504984123382997490000004587603769951512739_);">
				
					<line style="fill:none;stroke:#90BAFD;stroke-width:1.8236;stroke-miterlimit:10;" x1="215.306" y1="407.258" x2="194.424" y2="439.628"/>
				
					<line style="fill:none;stroke:#90BAFD;stroke-width:1.8236;stroke-miterlimit:10;" x1="222.6" y1="407.258" x2="201.719" y2="439.628"/>
				
					<line style="fill:none;stroke:#90BAFD;stroke-width:1.8236;stroke-miterlimit:10;" x1="229.894" y1="407.258" x2="209.013" y2="439.628"/>
				
					<line style="fill:none;stroke:#90BAFD;stroke-width:1.8236;stroke-miterlimit:10;" x1="237.189" y1="407.258" x2="216.307" y2="439.628"/>
				
					<line style="fill:none;stroke:#90BAFD;stroke-width:1.8236;stroke-miterlimit:10;" x1="244.484" y1="407.258" x2="223.601" y2="439.628"/>
				
					<line style="fill:none;stroke:#90BAFD;stroke-width:1.8236;stroke-miterlimit:10;" x1="251.778" y1="407.258" x2="230.896" y2="439.628"/>
				
					<line style="fill:none;stroke:#90BAFD;stroke-width:1.8236;stroke-miterlimit:10;" x1="259.072" y1="407.258" x2="238.191" y2="439.628"/>
				
					<line style="fill:none;stroke:#90BAFD;stroke-width:1.8236;stroke-miterlimit:10;" x1="266.367" y1="407.258" x2="245.485" y2="439.628"/>
				
					<line style="fill:none;stroke:#90BAFD;stroke-width:1.8236;stroke-miterlimit:10;" x1="273.662" y1="407.258" x2="252.779" y2="439.628"/>
				
					<line style="fill:none;stroke:#90BAFD;stroke-width:1.8236;stroke-miterlimit:10;" x1="280.956" y1="407.258" x2="260.074" y2="439.628"/>
				
					<line style="fill:none;stroke:#90BAFD;stroke-width:1.8236;stroke-miterlimit:10;" x1="288.249" y1="407.258" x2="267.369" y2="439.628"/>
				
					<line style="fill:none;stroke:#90BAFD;stroke-width:1.8236;stroke-miterlimit:10;" x1="295.544" y1="407.258" x2="274.663" y2="439.628"/>
				
					<line style="fill:none;stroke:#90BAFD;stroke-width:1.8236;stroke-miterlimit:10;" x1="127.773" y1="407.258" x2="106.891" y2="439.628"/>
				
					<line style="fill:none;stroke:#90BAFD;stroke-width:1.8236;stroke-miterlimit:10;" x1="135.068" y1="407.258" x2="114.186" y2="439.628"/>
				
					<line style="fill:none;stroke:#90BAFD;stroke-width:1.8236;stroke-miterlimit:10;" x1="142.363" y1="407.258" x2="121.48" y2="439.628"/>
				
					<line style="fill:none;stroke:#90BAFD;stroke-width:1.8236;stroke-miterlimit:10;" x1="149.658" y1="407.258" x2="128.774" y2="439.628"/>
				
					<line style="fill:none;stroke:#90BAFD;stroke-width:1.8236;stroke-miterlimit:10;" x1="156.951" y1="407.258" x2="136.069" y2="439.628"/>
				
					<line style="fill:none;stroke:#90BAFD;stroke-width:1.8236;stroke-miterlimit:10;" x1="164.246" y1="407.258" x2="143.364" y2="439.628"/>
				
					<line style="fill:none;stroke:#90BAFD;stroke-width:1.8236;stroke-miterlimit:10;" x1="171.541" y1="407.258" x2="150.658" y2="439.628"/>
				
					<line style="fill:none;stroke:#90BAFD;stroke-width:1.8236;stroke-miterlimit:10;" x1="178.835" y1="407.258" x2="157.952" y2="439.628"/>
				
					<line style="fill:none;stroke:#90BAFD;stroke-width:1.8236;stroke-miterlimit:10;" x1="186.129" y1="407.258" x2="165.247" y2="439.628"/>
				
					<line style="fill:none;stroke:#90BAFD;stroke-width:1.8236;stroke-miterlimit:10;" x1="193.423" y1="407.258" x2="172.541" y2="439.628"/>
				
					<line style="fill:none;stroke:#90BAFD;stroke-width:1.8236;stroke-miterlimit:10;" x1="200.717" y1="407.258" x2="179.835" y2="439.628"/>
				
					<line style="fill:none;stroke:#90BAFD;stroke-width:1.8236;stroke-miterlimit:10;" x1="208.011" y1="407.258" x2="187.129" y2="439.628"/>
			</g>
		</g>
	</g>
	<g>
		<path style="fill:#463281;" d="M286.565,363.946c0,2.541-2.06,4.605-4.604,4.605H101.228c-2.543,0-4.603-2.065-4.603-4.605
			v-117.91c0-2.541,2.06-4.604,4.603-4.604h180.733c2.544,0,4.604,2.063,4.604,4.604V363.946z"/>
		<g>
			<g>
				<path style="fill:#FFFFFF;" d="M191.594,247.587c2.473,0,2.473-3.835,0-3.835C189.121,243.752,189.121,247.587,191.594,247.587
					L191.594,247.587z"/>
			</g>
		</g>
		<g>
			<path style="fill:#CADEFE;" d="M273.269,355.692c0,2.188-1.773,3.957-3.957,3.957H113.878c-2.186,0-3.96-1.77-3.96-3.957v-101.4
				c0-2.188,1.774-3.959,3.96-3.959h155.433c2.185,0,3.957,1.771,3.957,3.959V355.692z"/>
			<g style="opacity:0.4;">
				<path style="fill:#FFFFFF;" d="M121.874,359.649h-7.996c-2.186,0-3.96-1.77-3.96-3.957v-101.4c0-2.188,1.774-3.959,3.96-3.959
					h111.303"/>
				<polygon style="fill:#FFFFFF;" points="147.07,359.649 136.919,359.649 240.225,250.333 250.435,250.107 				"/>
			</g>
		</g>
		<g>
			<g>
				<path style="fill:#90BAFD;" d="M99.988,370.25c0,0.555-0.448,1.004-1.002,1.004H88.623c-0.555,0-1.004-0.449-1.004-1.004v-3.176
					c0-0.553,0.449-1.002,1.004-1.002h10.363c0.554,0,1.002,0.449,1.002,1.002V370.25z"/>
				<path style="fill:#90BAFD;" d="M115.033,370.25c0,0.555-0.449,1.004-1.002,1.004h-10.363c-0.555,0-1.003-0.449-1.003-1.004
					v-3.176c0-0.553,0.448-1.002,1.003-1.002h10.363c0.553,0,1.002,0.449,1.002,1.002V370.25z"/>
				<path style="fill:#90BAFD;" d="M130.078,370.25c0,0.555-0.448,1.004-1.002,1.004h-10.363c-0.555,0-1.004-0.449-1.004-1.004
					v-3.176c0-0.553,0.449-1.002,1.004-1.002h10.363c0.554,0,1.002,0.449,1.002,1.002V370.25z"/>
				<path style="fill:#90BAFD;" d="M145.123,370.25c0,0.555-0.449,1.004-1.003,1.004h-10.363c-0.554,0-1.002-0.449-1.002-1.004
					v-3.176c0-0.553,0.448-1.002,1.002-1.002h10.363c0.554,0,1.003,0.449,1.003,1.002V370.25z"/>
				<path style="fill:#90BAFD;" d="M160.167,370.25c0,0.555-0.448,1.004-1.004,1.004h-10.361c-0.555,0-1.004-0.449-1.004-1.004
					v-3.176c0-0.553,0.449-1.002,1.004-1.002h10.361c0.556,0,1.004,0.449,1.004,1.002V370.25z"/>
				<path style="fill:#90BAFD;" d="M175.212,370.25c0,0.555-0.449,1.004-1.003,1.004h-10.363c-0.554,0-1.003-0.449-1.003-1.004
					v-3.176c0-0.553,0.449-1.002,1.003-1.002h10.363c0.554,0,1.003,0.449,1.003,1.002V370.25z"/>
				<path style="fill:#90BAFD;" d="M190.257,370.25c0,0.555-0.449,1.004-1.003,1.004h-10.362c-0.555,0-1.004-0.449-1.004-1.004
					v-3.176c0-0.553,0.449-1.002,1.004-1.002h10.362c0.554,0,1.003,0.449,1.003,1.002V370.25z"/>
				<path style="fill:#90BAFD;" d="M205.301,370.25c0,0.555-0.448,1.004-1.002,1.004h-10.363c-0.555,0-1.004-0.449-1.004-1.004
					v-3.176c0-0.553,0.449-1.002,1.004-1.002h10.363c0.554,0,1.002,0.449,1.002,1.002V370.25z"/>
				<path style="fill:#90BAFD;" d="M220.346,370.25c0,0.555-0.449,1.004-1.002,1.004h-10.363c-0.556,0-1.004-0.449-1.004-1.004
					v-3.176c0-0.553,0.448-1.002,1.004-1.002h10.363c0.553,0,1.002,0.449,1.002,1.002V370.25z"/>
				<path style="fill:#90BAFD;" d="M235.39,370.25c0,0.555-0.448,1.004-1.002,1.004h-10.363c-0.555,0-1.003-0.449-1.003-1.004
					v-3.176c0-0.553,0.448-1.002,1.003-1.002h10.363c0.554,0,1.002,0.449,1.002,1.002V370.25z"/>
				<path style="fill:#90BAFD;" d="M250.435,370.25c0,0.555-0.448,1.004-1.002,1.004H239.07c-0.555,0-1.003-0.449-1.003-1.004
					v-3.176c0-0.553,0.448-1.002,1.003-1.002h10.363c0.554,0,1.002,0.449,1.002,1.002V370.25z"/>
				<path style="fill:#90BAFD;" d="M265.48,370.25c0,0.555-0.448,1.004-1.003,1.004h-10.363c-0.554,0-1.003-0.449-1.003-1.004
					v-3.176c0-0.553,0.449-1.002,1.003-1.002h10.363c0.555,0,1.003,0.449,1.003,1.002V370.25z"/>
				<path style="fill:#90BAFD;" d="M280.525,370.25c0,0.555-0.448,1.004-1.003,1.004H269.16c-0.555,0-1.003-0.449-1.003-1.004
					v-3.176c0-0.553,0.448-1.002,1.003-1.002h10.362c0.555,0,1.003,0.449,1.003,1.002V370.25z"/>
				<path style="fill:#90BAFD;" d="M295.57,370.25c0,0.555-0.448,1.004-1.003,1.004h-10.363c-0.554,0-1.003-0.449-1.003-1.004
					v-3.176c0-0.553,0.449-1.002,1.003-1.002h10.363c0.555,0,1.003,0.449,1.003,1.002V370.25z"/>
			</g>
			<path style="fill:#7663B7;" d="M306.947,376.786c0,2.543-0.526,4.603-3.065,4.603H79.31c-2.544,0-3.068-2.061-3.068-4.603v-3.941
				c0-2.545,0.524-4.604,3.068-4.604h224.571c2.539,0,3.065,2.059,3.065,4.604V376.786z"/>
			<path style="fill:#463281;" d="M306.947,372.844v7.539c0,2.539-0.526,4.6-3.065,4.6H79.31c-2.544,0-3.068-2.061-3.068-4.6v-7.539
				"/>
		</g>
	</g>
	<g>
		<path style="fill:#7663B7;" d="M423.756,278.356c0,0.807-0.653,1.461-1.46,1.461l0,0c-0.806,0-1.46-0.654-1.46-1.461v-23.859
			c0-0.806,0.654-1.461,1.46-1.461l0,0c0.807,0,1.46,0.655,1.46,1.461V278.356z"/>
		<path style="fill:#463281;" d="M422.307,376.508c0,4.805-3.896,8.697-8.7,8.697H341.12c-4.806,0-8.699-3.893-8.699-8.697V238.781
			c0-4.804,3.894-8.697,8.699-8.697h72.487c4.805,0,8.7,3.894,8.7,8.697V376.508z"/>
		<g>
			<g>
				<path style="fill:#7663B7;" d="M359.242,239.195c12.081,0,24.163,0,36.244,0c1.47,0,1.47-2.279,0-2.279
					c-12.081,0-24.163,0-36.244,0C357.772,236.916,357.772,239.195,359.242,239.195L359.242,239.195z"/>
			</g>
		</g>
		<g>
			<g>
				<path style="fill:#FFFFFF;" d="M405.856,240.471c3.116,0,3.116-4.832,0-4.832S402.74,240.471,405.856,240.471L405.856,240.471z"
					/>
			</g>
		</g>
		<g>
			<g>
				<path style="fill:#FFFFFF;" d="M377.363,377.957c4.052,0,4.052-6.283,0-6.283C373.311,371.673,373.311,377.957,377.363,377.957
					L377.363,377.957z"/>
			</g>
		</g>
		<g>
			<g>
				<path style="fill:#7663B7;" d="M358.516,377.094c2.939,0,2.939-4.559,0-4.559C355.577,372.536,355.577,377.094,358.516,377.094
					L358.516,377.094z"/>
			</g>
		</g>
		<g>
			<g>
				<path style="fill:#7663B7;" d="M396.21,377.094c2.94,0,2.94-4.559,0-4.559C393.27,372.536,393.27,377.094,396.21,377.094
					L396.21,377.094z"/>
			</g>
		</g>
		<g>
			<rect x="338.22" y="253.036" style="fill:#CADEFE;" width="78.286" height="114.771"/>
			<g style="opacity:0.4;">
				<defs>
					
						<rect id="SVGID_00000004520188904401957450000017996919174330702243_" x="338.22" y="253.036" style="opacity:0.4;" width="78.286" height="114.771"/>
				</defs>
				<clipPath id="SVGID_00000168118881254030215960000000930455502680435898_">
					<use xlink:href="#SVGID_00000004520188904401957450000017996919174330702243_"  style="overflow:visible;"/>
				</clipPath>
				<g style="clip-path:url(#SVGID_00000168118881254030215960000000930455502680435898_);">
					<path style="fill:#FFFFFF;" d="M329.566,362.547h-7.995c-2.185,0-3.96-1.77-3.96-3.959V257.19c0-2.188,1.775-3.959,3.96-3.959
						h111.303"/>
					<polygon style="fill:#FFFFFF;" points="348.254,369.95 336.924,369.95 447.918,253.231 458.128,253.005 					"/>
				</g>
			</g>
		</g>
	</g>
	<g>
		<g>
			<g>
				<polygon style="fill:#FF9700;" points="378.867,305.135 348.254,305.135 348.254,284.19 369.881,284.19 				"/>
				<rect x="348.254" y="290.124" style="fill:#FF9700;" width="58.027" height="37.494"/>
			</g>
			<rect x="351.277" y="293.637" style="fill:#FFFFFF;" width="51.982" height="30.605"/>
			<rect x="348.254" y="297.01" style="fill:#FFBA00;" width="58.027" height="30.607"/>
		</g>
		<g>
			<path style="fill-rule:evenodd;clip-rule:evenodd;fill:#FFFFFF;" d="M388.119,312.247c0,5.99-4.858,10.85-10.851,10.85
				s-10.85-4.859-10.85-10.85c0-5.992,4.857-10.852,10.85-10.852S388.119,306.254,388.119,312.247z"/>
			<g>
				<g>
					
						<line style="fill:none;stroke:#90BAFD;stroke-width:2.006;stroke-miterlimit:10;" x1="377.268" y1="304.215" x2="377.268" y2="313.86"/>
					<g>
						<polygon style="fill:#90BAFD;" points="373.868,309.865 377.268,313.267 380.668,309.865 380.668,312.753 377.268,316.153 
							373.868,312.753 						"/>
					</g>
				</g>
			</g>
			
				<line style="fill:none;stroke:#90BAFD;stroke-width:2.1296;stroke-miterlimit:10;" x1="372.774" y1="318.106" x2="381.764" y2="318.106"/>
		</g>
	</g>
	<g>
		<g>
			<g>
				<polygon style="fill:#FF9700;" points="193.805,304.866 152.437,304.866 152.437,276.561 181.662,276.561 				"/>
				<rect x="152.437" y="284.581" style="fill:#FF9700;" width="78.414" height="50.664"/>
			</g>
			<rect x="156.52" y="289.327" style="fill:#FFFFFF;" width="70.248" height="41.359"/>
			<rect x="152.437" y="293.885" style="fill:#FFBA00;" width="78.414" height="41.359"/>
		</g>
		<g>
			<circle style="fill-rule:evenodd;clip-rule:evenodd;fill:#FFFFFF;" cx="191.644" cy="315.227" r="12.766"/>
			<g>
				<g>
					
						<line style="fill:none;stroke:#90BAFD;stroke-width:2.36;stroke-miterlimit:10;" x1="191.644" y1="308.479" x2="191.644" y2="319.823"/>
					<g>
						<polygon style="fill:#90BAFD;" points="187.643,313.18 191.644,309.176 195.645,313.18 195.645,309.783 191.644,305.782 
							187.643,309.783 						"/>
					</g>
				</g>
			</g>
			
				<line style="fill:none;stroke:#90BAFD;stroke-width:2.5054;stroke-miterlimit:10;" x1="186.356" y1="322.122" x2="196.932" y2="322.122"/>
		</g>
	</g>
	<g>
		<rect x="224.919" y="144.056" style="fill:#CADEFE;" width="50.148" height="66.561"/>
		<rect x="230.272" y="151.69" style="fill:#FF9700;" width="12.766" height="15.501"/>
		<g>
			<g>
				<g>
					<path style="fill:#90BAFD;" d="M246.918,153.745c7.599,0,15.196,0,22.795,0c1.176,0,1.176-1.823,0-1.823
						c-7.599,0-15.196,0-22.795,0C245.743,151.922,245.743,153.745,246.918,153.745L246.918,153.745z"/>
				</g>
			</g>
			<g>
				<g>
					<path style="fill:#90BAFD;" d="M246.918,158.306c7.599,0,15.196,0,22.795,0c1.176,0,1.176-1.823,0-1.823
						c-7.599,0-15.196,0-22.795,0C245.743,156.482,245.743,158.306,246.918,158.306L246.918,158.306z"/>
				</g>
			</g>
			<g>
				<g>
					<path style="fill:#90BAFD;" d="M246.918,162.864c7.599,0,15.196,0,22.795,0c1.176,0,1.176-1.823,0-1.823
						c-7.599,0-15.196,0-22.795,0C245.743,161.041,245.743,162.864,246.918,162.864L246.918,162.864z"/>
				</g>
			</g>
			<g>
				<g>
					<path style="fill:#90BAFD;" d="M246.918,167.422c7.599,0,15.196,0,22.795,0c1.176,0,1.176-1.823,0-1.823
						c-7.599,0-15.196,0-22.795,0C245.743,165.599,245.743,167.422,246.918,167.422L246.918,167.422z"/>
				</g>
			</g>
			<g>
				<g>
					<path style="fill:#90BAFD;" d="M230.272,171.982c13.147,0,26.294,0,39.441,0c1.176,0,1.176-1.823,0-1.823
						c-13.147,0-26.294,0-39.441,0C229.096,170.159,229.096,171.982,230.272,171.982L230.272,171.982z"/>
				</g>
			</g>
			<g>
				<g>
					<path style="fill:#90BAFD;" d="M230.272,176.541c13.147,0,26.294,0,39.441,0c1.176,0,1.176-1.823,0-1.823
						c-13.147,0-26.294,0-39.441,0C229.096,174.718,229.096,176.541,230.272,176.541L230.272,176.541z"/>
				</g>
			</g>
			<g>
				<g>
					<path style="fill:#90BAFD;" d="M230.272,181.101c13.147,0,26.294,0,39.441,0c1.176,0,1.176-1.823,0-1.823
						c-13.147,0-26.294,0-39.441,0C229.096,179.277,229.096,181.101,230.272,181.101L230.272,181.101z"/>
				</g>
			</g>
			<g>
				<g>
					<path style="fill:#90BAFD;" d="M230.272,185.659c13.147,0,26.294,0,39.441,0c1.176,0,1.176-1.823,0-1.823
						c-13.147,0-26.294,0-39.441,0C229.096,183.836,229.096,185.659,230.272,185.659L230.272,185.659z"/>
				</g>
			</g>
			<g>
				<g>
					<path style="fill:#90BAFD;" d="M230.272,190.217c13.147,0,26.294,0,39.441,0c1.176,0,1.176-1.823,0-1.823
						c-13.147,0-26.294,0-39.441,0C229.096,188.394,229.096,190.217,230.272,190.217L230.272,190.217z"/>
				</g>
			</g>
			<g>
				<g>
					<path style="fill:#90BAFD;" d="M230.272,194.777c13.147,0,26.294,0,39.441,0c1.176,0,1.176-1.823,0-1.823
						c-13.147,0-26.294,0-39.441,0C229.096,192.954,229.096,194.777,230.272,194.777L230.272,194.777z"/>
				</g>
			</g>
			<g>
				<g>
					<path style="fill:#90BAFD;" d="M230.272,199.336c13.147,0,26.294,0,39.441,0c1.176,0,1.176-1.823,0-1.823
						c-13.147,0-26.294,0-39.441,0C229.096,197.513,229.096,199.336,230.272,199.336L230.272,199.336z"/>
				</g>
			</g>
			<g>
				<g>
					<path style="fill:#90BAFD;" d="M230.272,203.895c13.147,0,26.294,0,39.441,0c1.176,0,1.176-1.823,0-1.823
						c-13.147,0-26.294,0-39.441,0C229.096,202.072,229.096,203.895,230.272,203.895L230.272,203.895z"/>
				</g>
			</g>
		</g>
	</g>
	<g>
		<g>
			<polygon style="fill:#CADEFE;" points="185.765,151.102 147.874,161.255 165.101,225.546 213.541,212.569 199.272,159.315 			"/>
			<polygon style="fill:#A6C8FD;" points="185.868,151.074 188.795,162.003 199.243,159.206 			"/>
		</g>
		
			<rect x="159.34" y="173.591" transform="matrix(0.9659 -0.2587 0.2587 0.9659 -41.1651 50.2334)" style="fill-rule:evenodd;clip-rule:evenodd;fill:#7663B7;" width="21.846" height="15.839"/>
		<g>
			<g>
				<g>
					<path style="fill:#90BAFD;" d="M163.205,197.347c12.624-3.382,25.248-6.765,37.871-10.147c1.135-0.304,0.653-2.063-0.484-1.759
						c-12.624,3.383-25.247,6.766-37.871,10.147C161.585,195.892,162.067,197.651,163.205,197.347L163.205,197.347z"/>
				</g>
			</g>
			<g>
				<g>
					<path style="fill:#90BAFD;" d="M164.385,201.751c12.623-3.384,25.246-6.766,37.869-10.148c1.135-0.304,0.653-2.064-0.484-1.759
						c-12.624,3.383-25.247,6.765-37.869,10.148C162.766,200.296,163.248,202.056,164.385,201.751L164.385,201.751z"/>
				</g>
			</g>
			<g>
				<g>
					<path style="fill:#90BAFD;" d="M165.564,206.154c12.624-3.382,25.248-6.765,37.872-10.147c1.135-0.304,0.653-2.063-0.484-1.759
						c-12.624,3.383-25.248,6.766-37.872,10.147C163.944,204.7,164.427,206.459,165.564,206.154L165.564,206.154z"/>
				</g>
			</g>
			<g>
				<g>
					<path style="fill:#90BAFD;" d="M166.744,210.557c12.624-3.382,25.248-6.764,37.872-10.146c1.135-0.304,0.653-2.064-0.484-1.759
						c-12.624,3.383-25.248,6.765-37.872,10.146C165.124,209.102,165.606,210.861,166.744,210.557L166.744,210.557z"/>
				</g>
			</g>
			<g>
				<g>
					<path style="fill:#90BAFD;" d="M167.923,214.962c8.661-2.32,17.322-4.642,25.982-6.963c1.135-0.304,0.653-2.063-0.484-1.759
						c-8.661,2.321-17.322,4.643-25.982,6.963C166.304,213.507,166.786,215.267,167.923,214.962L167.923,214.962z"/>
				</g>
			</g>
			<g>
				<g>
					<path style="fill:#90BAFD;" d="M182.913,172.725c4.442-1.191,8.885-2.382,13.327-3.571c1.135-0.304,0.653-2.063-0.484-1.759
						c-4.443,1.19-8.885,2.38-13.327,3.571C181.293,171.27,181.775,173.029,182.913,172.725L182.913,172.725z"/>
				</g>
			</g>
			<g>
				<g>
					<path style="fill:#90BAFD;" d="M184.092,177.128c4.443-1.191,8.886-2.381,13.328-3.571c1.135-0.304,0.653-2.064-0.484-1.759
						c-4.443,1.191-8.886,2.381-13.328,3.571C182.473,175.673,182.955,177.433,184.092,177.128L184.092,177.128z"/>
				</g>
			</g>
			<g>
				<g>
					<path style="fill:#90BAFD;" d="M185.272,181.53c4.443-1.19,8.886-2.38,13.328-3.57c1.135-0.304,0.653-2.064-0.484-1.759
						c-4.443,1.19-8.885,2.381-13.328,3.57C183.652,180.076,184.135,181.835,185.272,181.53L185.272,181.53z"/>
				</g>
			</g>
		</g>
	</g>
	<g>
		<g>
			<polygon style="fill:#CADEFE;" points="341.665,158.426 303.777,148.274 286.548,212.569 334.989,225.548 349.257,172.294 			"/>
			<polygon style="fill:#A6C8FD;" points="341.769,158.455 338.841,169.384 349.288,172.185 			"/>
		</g>
		<g>
			<g>
				<g>
					<path style="fill:#90BAFD;" d="M303.497,170.431c12.623,3.384,25.247,6.766,37.871,10.147c1.138,0.305,1.619-1.454,0.484-1.759
						c-12.624-3.382-25.248-6.763-37.871-10.147C302.843,168.367,302.362,170.126,303.497,170.431L303.497,170.431z"/>
				</g>
			</g>
			<g>
				<g>
					<path style="fill:#90BAFD;" d="M302.317,174.836c12.624,3.381,25.248,6.763,37.872,10.146c1.138,0.305,1.619-1.455,0.484-1.759
						c-12.623-3.383-25.248-6.765-37.872-10.146C301.664,172.773,301.182,174.532,302.317,174.836L302.317,174.836z"/>
				</g>
			</g>
			<g>
				<g>
					<path style="fill:#90BAFD;" d="M301.137,179.238c12.624,3.382,25.247,6.766,37.871,10.148c1.138,0.305,1.619-1.455,0.484-1.759
						c-12.624-3.381-25.247-6.765-37.871-10.147C300.484,177.175,300.003,178.934,301.137,179.238L301.137,179.238z"/>
				</g>
			</g>
			<g>
				<g>
					<path style="fill:#90BAFD;" d="M299.957,183.642c12.624,3.382,25.248,6.765,37.872,10.148c1.138,0.305,1.619-1.455,0.484-1.759
						c-12.624-3.383-25.248-6.766-37.872-10.148C299.303,181.578,298.822,183.337,299.957,183.642L299.957,183.642z"/>
				</g>
			</g>
			<g>
				<g>
					<path style="fill:#90BAFD;" d="M298.776,188.046c12.624,3.382,25.248,6.764,37.872,10.148c1.138,0.305,1.619-1.455,0.484-1.759
						c-12.624-3.383-25.248-6.766-37.872-10.148C298.123,185.982,297.641,187.742,298.776,188.046L298.776,188.046z"/>
				</g>
			</g>
			<g>
				<g>
					<path style="fill:#90BAFD;" d="M297.596,192.449c12.623,3.383,25.247,6.765,37.871,10.146c1.138,0.305,1.619-1.455,0.484-1.759
						c-12.624-3.381-25.248-6.763-37.871-10.146C296.943,190.386,296.461,192.145,297.596,192.449L297.596,192.449z"/>
				</g>
			</g>
			<g>
				<g>
					<path style="fill:#90BAFD;" d="M296.417,196.852c12.624,3.382,25.248,6.766,37.872,10.147c1.138,0.305,1.619-1.454,0.484-1.759
						c-12.624-3.381-25.248-6.765-37.872-10.147C295.763,194.788,295.282,196.547,296.417,196.852L296.417,196.852z"/>
				</g>
			</g>
			<g>
				<g>
					<path style="fill:#90BAFD;" d="M295.237,201.257c8.562,2.294,17.126,4.588,25.688,6.883c1.138,0.305,1.619-1.455,0.484-1.759
						c-8.563-2.294-17.125-4.588-25.689-6.883C294.583,199.193,294.102,200.953,295.237,201.257L295.237,201.257z"/>
				</g>
			</g>
		</g>
		
			<rect x="308.265" y="156.694" transform="matrix(0.2587 -0.966 0.966 0.2587 73.7125 422.7391)" style="fill-rule:evenodd;clip-rule:evenodd;fill:#7663B7;" width="8.041" height="13.298"/>
	</g>
</g>
</svg>
